<?xml version="1.0" encoding="UTF-8"?>
<svg id="Layer_1" data-name="Layer 1" xmlns="http://www.w3.org/2000/svg" xmlns:xlink="http://www.w3.org/1999/xlink" viewBox="0 0 719.5 719.5">
  <defs>
    <style>
      .cls-1, .cls-2 {
        stroke: #5f2700;
        stroke-miterlimit: 10;
        stroke-width: 7px;
      }

      .cls-1, .cls-3 {
        fill: none;
      }

      .cls-4 {
        fill: url(#linear-gradient);
      }

      .cls-4, .cls-5, .cls-6, .cls-7, .cls-8, .cls-9, .cls-3, .cls-10, .cls-11, .cls-12, .cls-13, .cls-14, .cls-15, .cls-16 {
        stroke-width: 0px;
      }

      .cls-5 {
        fill: #4c220a;
      }

      .cls-6 {
        fill: #000;
      }

      .cls-7 {
        fill: #764017;
      }

      .cls-8 {
        fill: #53341c;
      }

      .cls-9 {
        fill: #6e3d14;
      }

      .cls-2 {
        fill: url(#radial-gradient);
      }

      .cls-10 {
        fill: #482a19;
      }

      .cls-17 {
        clip-path: url(#clippath-1);
      }

      .cls-11 {
        fill: #5f2700;
      }

      .cls-12 {
        fill: #cd7b2c;
      }

      .cls-13 {
        fill: #c58643;
      }

      .cls-14 {
        fill: url(#linear-gradient-2);
      }

      .cls-15 {
        fill: #f0d9c0;
      }

      .cls-16 {
        fill: url(#linear-gradient-3);
      }

      .cls-18 {
        clip-path: url(#clippath);
      }
    </style>
    <radialGradient id="radial-gradient" cx="358.2" cy="318.83" fx="358.2" fy="318.83" r="288.45" gradientTransform="translate(0 2.23)" gradientUnits="userSpaceOnUse">
      <stop offset="0" stop-color="#dab684"/>
      <stop offset=".36" stop-color="#d9b481"/>
      <stop offset=".61" stop-color="#d8ae78"/>
      <stop offset=".81" stop-color="#d7a469"/>
      <stop offset="1" stop-color="#d59754"/>
      <stop offset="1" stop-color="#d59754"/>
    </radialGradient>
    <clipPath id="clippath">
      <circle class="cls-3" cx="359.75" cy="359.75" r="317.72"/>
    </clipPath>
    <clipPath id="clippath-1">
      <circle class="cls-3" cx="359.75" cy="359.75" r="317.72"/>
    </clipPath>
    <linearGradient id="linear-gradient" x1="220.93" y1="197.11" x2="426.15" y2="470.29" gradientUnits="userSpaceOnUse">
      <stop offset="0" stop-color="#7d5325"/>
      <stop offset="1" stop-color="#59341d"/>
    </linearGradient>
    <linearGradient id="linear-gradient-2" x1="305.88" y1="526.34" x2="595.53" y2="476.66" gradientUnits="userSpaceOnUse">
      <stop offset="0" stop-color="#6b4421"/>
      <stop offset=".36" stop-color="#765031"/>
      <stop offset="1" stop-color="#68472e"/>
    </linearGradient>
    <linearGradient id="linear-gradient-3" x1="386.44" y1="558.29" x2="577.14" y2="575.71" gradientUnits="userSpaceOnUse">
      <stop offset="0" stop-color="#422513"/>
      <stop offset="1" stop-color="#533420"/>
    </linearGradient>
  </defs>
  <circle class="cls-11" cx="359.75" cy="359.75" r="359.75"/>
  <circle class="cls-12" cx="359.75" cy="359.75" r="331.94"/>
  <circle class="cls-2" cx="359.75" cy="359.75" r="317.72"/>
  <g class="cls-18">
    <g>
      <path class="cls-9" d="M180.68,454.32s-6.22,37.7-28.41,63.92c0,0,11.85.78,13.02,0s-22.81,36.45-36.13,43.78c-5.55,3.06,23.35-1.89,23.35-1.89,0,0-5.2,26.79-29.62,47.97-16.26,14.11,124.61,31.31,112.91,17.41-20.59-24.45-32.17-43.34-36.49-63.47l23.09,5.58s-22.19-19.45-26.74-42.52c-.25-1.26-.45-2.54-.58-3.82l11.56,2.82s-21.29-29.28-25.95-69.78Z"/>
      <path class="cls-9" d="M250.68,515.36s-6.22,37.7-28.41,63.92c0,0,11.85.78,13.02,0s-22.81,36.45-36.13,43.78c-5.55,3.06,23.35-1.89,23.35-1.89,0,0-5.2,26.79-29.62,47.97-16.26,14.11,124.61,31.31,112.91,17.41-20.59-24.45-32.17-43.34-36.49-63.47l23.09,5.58s-22.19-19.45-26.74-42.52c-.25-1.26-.45-2.54-.58-3.82l11.56,2.82s-21.29-29.28-25.95-69.78Z"/>
      <path class="cls-5" d="M129.84,482.83s-9.09,48.74-41.54,82.65c0,0,17.32,1.01,19.04,0,1.71-1.01-33.35,47.13-52.83,56.61-8.12,3.95,34.13-2.44,34.13-2.44,0,0-7.6,34.64-43.3,62.03-23.78,18.24,182.18,40.48,165.07,22.51-30.1-31.62-47.03-56.04-53.34-82.07l33.76,7.22s-32.44-25.14-39.09-54.98c-.36-1.63-.65-3.28-.85-4.94l16.9,3.64s-31.12-37.85-37.93-90.23Z"/>
      <path class="cls-13" d="M629.51,302.88s-9.19,55.58-42.04,94.25c0,0,17.53,1.15,19.26,0s-33.75,53.74-53.46,64.56c-8.21,4.51,34.54-2.78,34.54-2.78,0,0-7.69,39.5-43.82,70.73-24.06,20.8,184.35,46.16,167.04,25.67-30.46-36.05-47.59-63.91-53.98-93.59l34.16,8.23s-32.83-28.67-39.56-62.7c-.37-1.86-.66-3.74-.86-5.63l17.1,4.15s-31.49-43.17-38.39-102.89Z"/>
      <path class="cls-7" d="M694.84,231.37s-11.83,72.96-54.09,123.72c0,0,22.56,1.51,24.79,0,2.23-1.51-43.43,70.54-68.79,84.74-10.57,5.91,44.45-3.65,44.45-3.65,0,0-9.89,51.85-56.39,92.85-30.96,27.3,237.23,60.59,214.96,33.69-39.2-47.32-61.24-83.89-69.46-122.85l43.96,10.8s-42.24-37.64-50.91-82.3c-.47-2.44-.85-4.91-1.11-7.39l22,5.45s-40.53-56.66-49.4-135.06Z"/>
    </g>
  </g>
  <g class="cls-17">
    <g>
      <path class="cls-6" d="M247.79,306.4c-21.69-14.82-38.4-30.68-52.03-66.84-11.41-30.26-18.43-61.94,8.51-80.74,1.06-.74,4.68-2.75,5.92-3.33,33.19-15.57,95.15,34.92,109.92,61.71,14.77,26.8-56.92,99.71-72.32,89.19Z"/>
      <path class="cls-6" d="M258.03,220.94s-10.5,42-13.95,60.67c-5.52,29.87-33.68,56.69-28.59,62.74,7.57,9.01,24.51,6.68,25.82,9.42s-.5,16.49-.98,20.43c0,0,.59,4.36,8.33,6.75,0,0-4.21,6.03-1.26,10.35s5.86,4.73,6.49,18.88c.63,14.15,1.7,21.7,10.14,25.62,8.45,3.92,24.54,1.56,38.43-3.37,13.89-4.94,31.33-15.87,34.38-9.44,3.06,6.43,8.76,24.27,8.76,24.27,0,0-50.79,21.12-51.24,34.61,0,0,7.18,8.27,11.69,13.71,0,0-16.24.78-18.65,12.36-2.41,11.58,9.44,23.37,9.44,23.37,0,0-82.69,74.09-99.7,98.21-17.01,24.12,46.08,46.03,87.16,59.73,41.08,13.7,171.18,26.77,254.64-30.25,83.46-57.02,97.24-97.61,79.76-111.27-17.48-13.66-34.8-28.59-34.8-28.59,0,0,20.37-35.66,11.44-45.99-8.93-10.34-45.14-35.45-64.51-26.26-19.37,9.19-20.86-39.24-24.61-72.26-3.75-33.02-8.3-173.31-49.17-195.29-40.87-21.98-72.15-28.8-116.11-18.58-43.97,10.22-71.82,27.69-82.9,60.19Z"/>
      <path class="cls-6" d="M567.3,149.64s-83.63-86.84-196.43-59.3c-99.81,24.36-169.51,64.39-177.95,79.55,0,0,15.9-15.34,42.89,11.65,10.82,10.82,43.92,50.49,76.92,101.1,33.01,50.61,56.29,73.85,84.93,102.49,28.06,28.06,70.51,33.93,49.24,63.42-30.89,42.82-85.83,74.32-85.83,74.32,0,0,182.85-52.73,207.31-74.73,24.46-22,50.03-41.2,31.68-75.08-14.77-27.27-66.66-130.64-66.66-187.7,0,0,7.66-15,33.88-35.72Z"/>
      <path class="cls-4" d="M480.47,435.07c26.54-26.54-18.28-41.91-56.09-71.64-38.25-30.07-65.8-58.42-105.25-127.04-35.01-60.92-63.44-83.46-89.64-93.49-20.4,11.2-33.25,21.02-36.57,26.99,0,0,15.9-15.34,42.89,11.65,10.82,10.82,43.92,50.49,76.92,101.1,33.01,50.61,56.29,73.85,84.93,102.49,28.06,28.06,70.51,33.93,49.24,63.42-30.89,42.82-85.83,74.32-85.83,74.32,0,0,2.93-.84,8.07-2.36,25.14-11.89,86.43-60.57,111.3-85.44Z"/>
      <path class="cls-14" d="M583.83,519.17s19.02-38.23,12.54-45.43c-10.81-12-43.54-39.49-74.13-22.57-40.2,22.23-167.49,86.11-167.49,86.11,0,0-38.65-11.98-40.41-12.82-1.76-.84-4.59-1.39-6,1.9-1.41,3.29,4.82,5.27,4.82,5.27,0,0,29.84,14.31,38.26,14.31,0,0,17.24-5.71,43.94-16.94,26.7-11.23,93.15-36.99,115.11-43.19,24.3-6.85,50.01-13.23,58.22,2.85,8.21,16.09,15.14,30.5,15.14,30.5Z"/>
      <path class="cls-8" d="M338.42,519.56s-21.21-39.38-29.1-43.24c-7.89-3.85-17.09.24-15.78,4.71,1.32,4.48,9.95,15.2,19.06,21.11,9.1,5.9,25.82,17.42,25.82,17.42Z"/>
      <path class="cls-10" d="M324.34,557.34s-26.89,8.66-44.92,22.04c-18.03,13.39-35.96,36.44-21.63,36.82,14.33.38,29.2-21.21,35.42-27.77,6.22-6.57,31.13-31.09,31.13-31.09Z"/>
      <path class="cls-10" d="M349.3,557.15s23.93,22.19,34.95,43.38c11.02,21.2,15.53,50.41-.53,42.76-16.06-7.66-18.17-33.94-20.68-42.88-2.51-8.94-13.74-43.26-13.74-43.26Z"/>
      <path class="cls-10" d="M310.42,629.99s11.57,14.92,19.05-.42c7.49-15.34,8.56-61.1,12.72-76.01,0,0-14.17,30.76-18.26,40.23-8.71,20.21-17.53,32.04-13.52,36.2Z"/>
    </g>
  </g>
  <path class="cls-16" d="M381.79,559.28s82.88-5,135.92,45.44c0,0-3.12-24.46-13.64-36.51,0,0,12.86,1.42,21.52,8.11,0,0,1.83-7.92-9.97-17.04,0,0,39.82-1.48,62.45,24.34,0,0-9.56-61.13-109.46-46.89,0,0,23.99,15.1,17.1,13.22-65.07-17.77-103.91,9.33-103.91,9.33Z"/>
  <path class="cls-15" d="M567.3,149.64s-51.82-54.74-131.79-63.61c-79.4-8.82-177.49,35.35-233.67,74.37,0,0,66.53-44.73,157.91-61.75,50.63-9.43,124.52-10.92,207.55,50.99Z"/>
  <circle class="cls-1" cx="359.75" cy="359.75" r="317.72"/>
</svg>