<?xml version="1.0" encoding="UTF-8"?>
<svg id="Layer_1" data-name="Layer 1" xmlns="http://www.w3.org/2000/svg" xmlns:xlink="http://www.w3.org/1999/xlink" viewBox="0 0 719.5 719.5">
  <defs>
    <style>
      .cls-1 {
        fill: url(#radial-gradient);
        stroke: #021f57;
      }

      .cls-1, .cls-2, .cls-3 {
        stroke-miterlimit: 10;
        stroke-width: 7px;
      }

      .cls-2, .cls-4 {
        fill: none;
      }

      .cls-2, .cls-3 {
        stroke: #3b0301;
      }

      .cls-5 {
        fill: url(#linear-gradient);
      }

      .cls-5, .cls-6, .cls-7, .cls-8, .cls-9, .cls-4, .cls-10, .cls-11, .cls-12, .cls-13, .cls-14, .cls-15, .cls-16, .cls-17 {
        stroke-width: 0px;
      }

      .cls-6 {
        fill: #000;
      }

      .cls-7 {
        fill: #ffcc8a;
      }

      .cls-18 {
        clip-path: url(#clippath-2);
      }

      .cls-8 {
        fill: #3b0301;
      }

      .cls-9 {
        fill: url(#linear-gradient-5);
      }

      .cls-19 {
        clip-path: url(#clippath-1);
      }

      .cls-3 {
        fill: url(#radial-gradient-2);
      }

      .cls-10 {
        fill: #c75b1c;
      }

      .cls-11 {
        fill: url(#linear-gradient-2);
      }

      .cls-12 {
        fill: #a11c06;
      }

      .cls-13 {
        fill: url(#linear-gradient-3);
      }

      .cls-14 {
        fill: #822315;
      }

      .cls-15 {
        fill: #d23e12;
      }

      .cls-16 {
        fill: #3d0603;
      }

      .cls-17 {
        fill: url(#linear-gradient-4);
      }
    </style>
    <radialGradient id="radial-gradient" cx="369.39" cy="322.71" fx="369.39" fy="322.71" r="310.97" gradientTransform="translate(0 2.23)" gradientUnits="userSpaceOnUse">
      <stop offset="0" stop-color="#a6c5ea"/>
      <stop offset=".24" stop-color="#a3c2e8"/>
      <stop offset=".4" stop-color="#9abae2"/>
      <stop offset=".53" stop-color="#8bacd8"/>
      <stop offset=".66" stop-color="#7599ca"/>
      <stop offset=".77" stop-color="#5a80b9"/>
      <stop offset=".88" stop-color="#3862a3"/>
      <stop offset=".98" stop-color="#103e89"/>
      <stop offset="1" stop-color="#083784"/>
    </radialGradient>
    <radialGradient id="radial-gradient-2" cx="369.39" cy="322.71" fx="369.39" fy="322.71" r="310.97" gradientTransform="translate(0 2.23)" gradientUnits="userSpaceOnUse">
      <stop offset="0" stop-color="#f8ab58"/>
      <stop offset=".26" stop-color="#f6a856"/>
      <stop offset=".43" stop-color="#f29f50"/>
      <stop offset=".58" stop-color="#ec9047"/>
      <stop offset=".71" stop-color="#e27a3a"/>
      <stop offset=".84" stop-color="#d65f29"/>
      <stop offset=".95" stop-color="#c73d15"/>
      <stop offset="1" stop-color="#c12e0c"/>
    </radialGradient>
    <linearGradient id="linear-gradient" x1="386.44" y1="558.29" x2="577.14" y2="575.71" gradientUnits="userSpaceOnUse">
      <stop offset="0" stop-color="#255091"/>
      <stop offset="1" stop-color="#234e93"/>
    </linearGradient>
    <clipPath id="clippath-1">
      <circle class="cls-4" cx="359.75" cy="359.75" r="317.72"/>
    </clipPath>
    <linearGradient id="linear-gradient-2" x1="466.72" y1="37.08" x2="696.34" y2="305.22" gradientUnits="userSpaceOnUse">
      <stop offset="0" stop-color="#d64114"/>
      <stop offset="1" stop-color="#b03c19"/>
    </linearGradient>
    <clipPath id="clippath-2">
      <circle class="cls-4" cx="359.75" cy="359.75" r="317.72"/>
    </clipPath>
    <linearGradient id="linear-gradient-3" x1="220.93" y1="197.11" x2="426.15" y2="470.29" gradientUnits="userSpaceOnUse">
      <stop offset="0" stop-color="#bc2007"/>
      <stop offset=".21" stop-color="#eb4626"/>
      <stop offset="1" stop-color="#b71903"/>
    </linearGradient>
    <linearGradient id="linear-gradient-4" x1="294.04" y1="528.37" x2="595.53" y2="476.66" gradientUnits="userSpaceOnUse">
      <stop offset="0" stop-color="#bc2007"/>
      <stop offset=".36" stop-color="#e74323"/>
      <stop offset="1" stop-color="#b91a04"/>
    </linearGradient>
    <linearGradient id="linear-gradient-5" x1="386.44" y1="558.29" x2="577.14" y2="575.71" gradientUnits="userSpaceOnUse">
      <stop offset="0" stop-color="#d43216"/>
      <stop offset="1" stop-color="#822315"/>
    </linearGradient>
  </defs>
  <circle class="cls-8" cx="359.75" cy="359.75" r="359.75"/>
  <circle class="cls-12" cx="359.75" cy="359.75" r="331.94"/>
  <circle class="cls-1" cx="359.75" cy="359.75" r="317.72"/>
  <circle class="cls-3" cx="359.75" cy="359.75" r="317.72"/>
  <path class="cls-5" d="M381.79,559.28s82.88-5,135.92,45.44c0,0-3.12-24.46-13.64-36.51,0,0,12.86,1.42,21.52,8.11,0,0,1.83-7.92-9.97-17.04,0,0,39.82-1.48,62.45,24.34,0,0-9.56-61.13-109.46-46.89,0,0,23.99,15.1,17.1,13.22-65.07-17.77-103.91,9.33-103.91,9.33Z"/>
  <g class="cls-19">
    <path class="cls-16" d="M238.61,482.76l-8.62-3.46v-18.55c3.49-.11,9.22.16,18.33,1.64,0,0-19.01-16.84-28.68-47.48,0,0-11.46,35.11-31.33,45.17,0,0,11.55-1.48,20.19-.37v19.14l-9.6,3.2c10.05,8.5,11.02,19.72,11.1,22.77v9.39l-48.05-22.06v-27.17c1.47-12.4,9.33-23.78,9.33-23.78l-8.62-3.46v-18.55c3.49-.11,9.22.16,18.33,1.64,0,0-19.01-16.84-28.68-47.48,0,0-11.46,35.11-31.33,45.17,0,0,11.55-1.48,20.19-.37v19.14l-9.6,3.2c10.05,8.5,11.02,19.72,11.1,22.77v20.03l-48.04-22.06v-32.25c1.47-12.4,9.33-23.78,9.33-23.78l-8.62-3.46v-18.55c3.49-.11,9.22.16,18.33,1.64,0,0-19.01-16.84-28.68-47.48,0,0-11.46,35.11-31.33,45.17,0,0,11.55-1.48,20.19-.37v19.14l-9.6,3.2c10.05,8.5,11.02,19.72,11.1,22.77v25.11l-40.84-18.75-6.68,14.54,47.51,21.82v189.82h19.29v-103.62l48.04,22.06v117.56h19.29v-108.7l48.05,22.06v128.19h19.29v-130.72l2.36-5.14-2.36-1.08v-77.07l.1-.23-.1-.05v-16.53c1.47-12.4,9.33-23.78,9.33-23.78ZM94.61,538.58v-59.74l48.04,22.06v59.74l-48.04-22.06ZM161.94,569.5v-59.74l48.05,22.06v59.74l-48.05-22.06Z"/>
    <path class="cls-15" d="M46.66,284.88c11.24,7.74,19.83,19.24,24.07,32.21-2.37-9.52.77-20.2,7.91-26.92,3.71,1.17,6.24,5.26,5.64,9.1,1.61-12.37,23.49-13.66,26.55-1.57-1.86-8.61-11.12-12.99-17.72-18.83-6.59-5.84-9.54-18.77-1.3-21.87-2.91,7.73-13.82,11.04-20.53,6.23,4.33-4.95,9.09-10.16,15.49-11.68s14.52,2.82,14.18,9.39c-2.21-4.36-2.4-9.7-.5-14.2,4.56,3.53,8.17,8.28,10.35,13.62-3.99-6.02,7.87-11.99,12.89-6.79s3.75,13.61,1.97,20.62c1.94-8.29,3.88-16.59,5.82-24.88.55-2.36,1.44-5.1,3.75-5.83s4.64,3.24,2.35,4.03c-.58-5.8-1.06-12.06,1.98-17.04s11.1-7.1,14.63-2.46c-3.78-3.21-4.09-9.69-.64-13.25s9.93-3.46,13.26.21c-6.46-7.93-14.19-14.83-22.81-20.33,2.48-1.82,4.96-3.65,7.43-5.47-2.44-8.47,4.19-18.33,12.95-19.27-8.17-6.69-11.2-18.96-7.09-28.69,3.12,4.84,10.39,2.82,16.1,2.07s13.43,4.97,9.44,9.12c-2.89-3.34,2.93-8.37,6.95-6.53s5.5,6.68,6.55,10.98c8.54-.83,15.68,9.98,11.57,17.51,3.79-11.26,14.52-19.85,26.34-21.08-6.4-1.19-11.38-7.61-10.94-14.1.44-6.49,6.25-12.18,12.75-12.49-4.68.92-9.47-3.98-8.46-8.64s7.42-7.11,11.29-4.32c-5.03-7.24,5.79-14.94,14.31-17.19,7.72-2.04,18.89-2.12,20.47,5.71,2.89-7.2,16.04-5.4,16.89,2.32-.75-4.34,5.93-7.55,8.85-4.25-1.9-8.25-3.8-16.49-5.71-24.74-4.97-2.92,1.33-12.28,5.9-8.77-5.1-3.47-10.61-7.56-11.79-13.61-1.18-6.06,5.6-13.14,10.78-9.78,1.45-8.81,13.2-13.98,20.67-9.1-4.51-13.35-21.87-16.07-35.95-16.5-14.16-.43-28.33-.86-42.49-1.3,4.67,10.41-5.78,21.99-16.82,24.87s-22.84.7-34.03,2.94c-18.22,3.65-31.97,18.2-44.43,31.99-42.42,46.94-86.46,96.97-98.91,208.57Z"/>
    <path class="cls-11" d="M394.38,39.42c-3.27,7.74-6.54,15.48-9.81,23.22,2.56-6.06,12.62-4.42,15.79,1.35s1.66,12.87.07,19.26c2.79-5.12,9.38-7.8,14.95-6.08s9.5,7.66,8.91,13.45c3.12-8.33,13.72-12.93,21.94-9.53s12.45,14.16,8.77,22.25c13.89-4.74,29.48,12.22,23.58,25.66-5.03,23.27,6.2,49.15,26.63,61.36,6.27,3.75,13.27,6.31,18.98,10.87s10.02,12,8.05,19.03c5.05-8.23,20.72-3.76,20.67,5.9-1.65-5.09-3.27-10.82-.89-15.61s10.74-6.16,12.61-1.14c-4.72-6.44-8.46-17.42-1.2-20.74,5.36-2.45,12.87,2.32,17.08-1.81,4.63,9.11,2.12,21.27-5.74,27.8,12.16,2.76,17.62,20.39,9.16,29.55,7.83,9.77,2.87,26.74-8.99,30.76,6.09-.7,12.19-1.4,18.28-2.1.97,7.73,1.01,15.57.13,23.3-2.21-6.98,8.69-12.12,14.7-7.95s7.26,12.5,7.07,19.82c2.9-4.71,6.15-9.72,11.31-11.73s12.47,1.01,12.5,6.54c-2.87-4.16-5.71-9.19-4.16-14s10.02-6.2,11.12-1.27c-1.4-4.01,2.88-8.75,7.02-7.74s5.78,7.17,2.69,10.1c8.59-3.41,14.4,10.15,11.15,18.8-4.32,11.49-16.04,19.78-28.31,20.02-7,.14-16.52-.57-18.37,6.18,4.8,1.8,9.61,3.61,14.41,5.41-4.79,6.08-10.26,11.62-16.29,16.48,4.48-4.23,12.22,2.38,11.19,8.45s-6.69,10.09-11.88,13.42c3.61-.27,7.21-.55,10.82-.82-2.19,8.37-4.38,16.75-6.57,25.12,2.71-3.1,5.66-6.35,9.64-7.4s9.11,1.31,9.3,5.42c1.95-5.4,11.7-4.48,12.6,1.19-1.93-4.73,1.69-10.81,6.77-11.37,5.08-.55,9.93,4.61,9.06,9.64.15-6.2.3-12.41.46-18.61,7.36.81,14.72,1.62,22.08,2.43,13.21-16.78,26.61-33.89,34.4-53.78,16.07-41.06,6.04-87.25-5.48-129.81-7.79-28.75-16.31-57.66-31.16-83.48-30.26-52.62-85.55-88.34-144.71-101.9-28.06-6.43-57.02-8.27-85.01-14.97"/>
  </g>
  <circle class="cls-2" cx="359.75" cy="359.75" r="317.72"/>
  <g class="cls-18">
    <g>
      <path class="cls-6" d="M247.79,306.4c-21.69-14.82-38.4-30.68-52.03-66.84-11.41-30.26-18.43-61.94,8.51-80.74,1.06-.74,4.68-2.75,5.92-3.33,33.19-15.57,95.15,34.92,109.92,61.71,14.77,26.8-56.92,99.71-72.32,89.19Z"/>
      <path class="cls-6" d="M258.03,220.94s-10.5,42-13.95,60.67c-5.52,29.87-33.68,56.69-28.59,62.74,7.57,9.01,24.51,6.68,25.82,9.42s-.5,16.49-.98,20.43c0,0,.59,4.36,8.33,6.75,0,0-4.21,6.03-1.26,10.35s5.86,4.73,6.49,18.88c.63,14.15,1.7,21.7,10.14,25.62,8.45,3.92,24.54,1.56,38.43-3.37,13.89-4.94,31.33-15.87,34.38-9.44,3.06,6.43,8.76,24.27,8.76,24.27,0,0-50.79,21.12-51.24,34.61,0,0,7.18,8.27,11.69,13.71,0,0-16.24.78-18.65,12.36-2.41,11.58,9.44,23.37,9.44,23.37,0,0-82.69,74.09-99.7,98.21-17.01,24.12,46.08,46.03,87.16,59.73,41.08,13.7,171.18,26.77,254.64-30.25,83.46-57.02,97.24-97.61,79.76-111.27-17.48-13.66-34.8-28.59-34.8-28.59,0,0,20.37-35.66,11.44-45.99-8.93-10.34-45.14-35.45-64.51-26.26-19.37,9.19-20.86-39.24-24.61-72.26-3.75-33.02-8.3-173.31-49.17-195.29-40.87-21.98-72.15-28.8-116.11-18.58-43.97,10.22-71.82,27.69-82.9,60.19Z"/>
      <path class="cls-6" d="M567.3,149.64s-83.63-86.84-196.43-59.3c-99.81,24.36-169.51,64.39-177.95,79.55,0,0,15.9-15.34,42.89,11.65,10.82,10.82,43.92,50.49,76.92,101.1,33.01,50.61,56.29,73.85,84.93,102.49,28.06,28.06,70.51,33.93,49.24,63.42-30.89,42.82-85.83,74.32-85.83,74.32,0,0,182.85-52.73,207.31-74.73,24.46-22,50.03-41.2,31.68-75.08-14.77-27.27-66.66-130.64-66.66-187.7,0,0,7.66-15,33.88-35.72Z"/>
      <path class="cls-13" d="M480.47,435.07c26.54-26.54-18.28-41.91-56.09-71.64-38.25-30.07-65.8-58.42-105.25-127.04-35.01-60.92-63.44-83.46-89.64-93.49-20.4,11.2-33.25,21.02-36.57,26.99,0,0,15.9-15.34,42.89,11.65,10.82,10.82,43.92,50.49,76.92,101.1,33.01,50.61,56.29,73.85,84.93,102.49,28.06,28.06,70.51,33.93,49.24,63.42-30.89,42.82-85.83,74.32-85.83,74.32,0,0,2.93-.84,8.07-2.36,25.14-11.89,86.43-60.57,111.3-85.44Z"/>
      <path class="cls-17" d="M583.83,519.17s19.02-38.23,12.54-45.43c-10.81-12-43.54-39.49-74.13-22.57-40.2,22.23-167.49,86.11-167.49,86.11,0,0-38.65-11.98-40.41-12.82-1.76-.84-4.59-1.39-6,1.9-1.41,3.29,4.82,5.27,4.82,5.27,0,0,29.84,14.31,38.26,14.31,0,0,17.24-5.71,43.94-16.94,26.7-11.23,93.15-36.99,115.11-43.19,24.3-6.85,50.01-13.23,58.22,2.85,8.21,16.09,15.14,30.5,15.14,30.5Z"/>
      <path class="cls-14" d="M338.42,519.56s-21.21-39.38-29.1-43.24c-7.89-3.85-17.09.24-15.78,4.71,1.32,4.48,9.95,15.2,19.06,21.11,9.1,5.9,25.82,17.42,25.82,17.42Z"/>
      <path class="cls-14" d="M324.34,557.34s-26.89,8.66-44.92,22.04c-18.03,13.39-35.96,36.44-21.63,36.82,14.33.38,29.2-21.21,35.42-27.77,6.22-6.57,31.13-31.09,31.13-31.09Z"/>
      <path class="cls-14" d="M349.3,557.15s23.93,22.19,34.95,43.38c11.02,21.2,15.53,50.41-.53,42.76-16.06-7.66-18.17-33.94-20.68-42.88-2.51-8.94-13.74-43.26-13.74-43.26Z"/>
      <path class="cls-14" d="M310.42,629.99s11.57,14.92,19.05-.42c7.49-15.34,8.56-61.1,12.72-76.01,0,0-14.17,30.76-18.26,40.23-8.71,20.21-17.53,32.04-13.52,36.2Z"/>
    </g>
  </g>
  <path class="cls-7" d="M567.3,149.64s-51.82-54.74-131.79-63.61c-79.4-8.82-177.49,35.35-233.67,74.37,0,0,66.53-44.73,157.91-61.75,50.63-9.43,124.52-10.92,207.55,50.99Z"/>
  <path class="cls-10" d="M187.77,286.56c-9.29-6.78-21.57-13.79-31.49-7.96-4.05,2.38-8.65,6.8-12.51,4.13,6.05,3.59,12.09,7.17,18.14,10.76-6.24,4.44-13.42,7.55-20.93,9.06,3.52-.75,7.38.36,9.96,2.87-4.53,5.9-9.25,11.97-15.75,15.59s-15.32,4.17-20.94-.71c12.08,11.31,33.02,11.3,45.07-.04.89,4.75-.47,9.87-3.59,13.55,8.99-4.45,16.63-11.57,21.71-20.22.08,1.54.16,3.08.24,4.61,6.69-7.23,10.12-17.38,10.09-31.65Z"/>
  <path class="cls-9" d="M381.79,559.28s82.88-5,135.92,45.44c0,0-3.12-24.46-13.64-36.51,0,0,12.86,1.42,21.52,8.11,0,0,1.83-7.92-9.97-17.04,0,0,39.82-1.48,62.45,24.34,0,0-9.56-61.13-109.46-46.89,0,0,23.99,15.1,17.1,13.22-65.07-17.77-103.91,9.33-103.91,9.33Z"/>
  <path class="cls-10" d="M211.5,380.45c-8.06,6.24-13.78,15.45-15.8,25.44,3.2-4.46,7.02-8.47,11.33-11.89,1.37,4.5,2.75,9,4.12,13.51,1.52-3.65,3.05-7.31,4.57-10.96,2.43,7.28,4.98,14.77,10.02,20.56s13.28,9.49,20.54,6.98c-6.03-7.33-10.34-16.08-12.48-25.33,1.67,2.4,3.98,4.69,6.9,4.96s6.08-2.56,5.11-5.32c-6.66,2.89-15.41-2.15-16.26-9.36,2.61,0,5.43-.27,7.37-2.01s2.2-5.44-.1-6.67c-6.2,3.32-14.48,2.15-25.33.08Z"/>
</svg>