<?xml version="1.0" encoding="UTF-8"?>
<svg id="Layer_1" data-name="Layer 1" xmlns="http://www.w3.org/2000/svg" xmlns:xlink="http://www.w3.org/1999/xlink" viewBox="0 0 719.5 719.5">
  <defs>
    <style>
      .cls-1 {
        fill: url(#radial-gradient);
        stroke: #021f57;
      }

      .cls-1, .cls-2, .cls-3 {
        stroke-miterlimit: 10;
        stroke-width: 7px;
      }

      .cls-4 {
        fill: url(#linear-gradient);
      }

      .cls-4, .cls-5, .cls-6, .cls-7, .cls-8, .cls-9, .cls-10, .cls-11, .cls-12, .cls-13, .cls-14, .cls-15, .cls-16, .cls-17, .cls-18, .cls-19, .cls-20, .cls-21, .cls-22 {
        stroke-width: 0px;
      }

      .cls-5 {
        fill: #000;
      }

      .cls-2 {
        stroke: #363636;
      }

      .cls-2, .cls-10 {
        fill: none;
      }

      .cls-6 {
        fill: url(#linear-gradient-6);
      }

      .cls-23 {
        opacity: .97;
      }

      .cls-7 {
        fill: #474747;
      }

      .cls-8 {
        fill: #424242;
      }

      .cls-9 {
        fill: url(#linear-gradient-5);
      }

      .cls-3 {
        fill: url(#radial-gradient-2);
        stroke: #1c1c1c;
      }

      .cls-11 {
        fill: url(#linear-gradient-2);
      }

      .cls-12 {
        fill: #404040;
      }

      .cls-13 {
        fill: url(#linear-gradient-7);
      }

      .cls-14 {
        fill: url(#linear-gradient-3);
      }

      .cls-24 {
        clip-path: url(#clippath);
      }

      .cls-15 {
        fill: #383838;
      }

      .cls-16 {
        fill: #262626;
      }

      .cls-25 {
        clip-path: url(#clippath-3);
      }

      .cls-17 {
        fill: #333;
      }

      .cls-18 {
        fill: #8c8c8c;
      }

      .cls-19 {
        fill: #595959;
      }

      .cls-20 {
        fill: #c2c2c2;
      }

      .cls-21 {
        fill: url(#linear-gradient-4);
      }

      .cls-22 {
        fill: #4d4d4d;
      }
    </style>
    <radialGradient id="radial-gradient" cx="369.39" cy="322.71" fx="369.39" fy="322.71" r="310.97" gradientTransform="translate(0 2.23)" gradientUnits="userSpaceOnUse">
      <stop offset="0" stop-color="#a6c5ea"/>
      <stop offset=".24" stop-color="#a3c2e8"/>
      <stop offset=".4" stop-color="#9abae2"/>
      <stop offset=".53" stop-color="#8bacd8"/>
      <stop offset=".66" stop-color="#7599ca"/>
      <stop offset=".77" stop-color="#5a80b9"/>
      <stop offset=".88" stop-color="#3862a3"/>
      <stop offset=".98" stop-color="#103e89"/>
      <stop offset="1" stop-color="#083784"/>
    </radialGradient>
    <radialGradient id="radial-gradient-2" cx="334.3" cy="311.07" fx="334.3" fy="311.07" r="325.97" gradientTransform="translate(0 68.11) scale(1 .83)" gradientUnits="userSpaceOnUse">
      <stop offset="0" stop-color="#fff"/>
      <stop offset=".24" stop-color="#fcfcfc"/>
      <stop offset=".41" stop-color="#f3f3f3"/>
      <stop offset=".55" stop-color="#e3e3e3"/>
      <stop offset=".68" stop-color="#cdcdcd"/>
      <stop offset=".81" stop-color="#b1b1b1"/>
      <stop offset=".92" stop-color="#8f8f8f"/>
      <stop offset="1" stop-color="#737373"/>
    </radialGradient>
    <clipPath id="clippath">
      <circle class="cls-10" cx="359.75" cy="359.75" r="317.72"/>
    </clipPath>
    <linearGradient id="linear-gradient" x1="116.5" y1="481.15" x2="116.5" y2="649.95" gradientUnits="userSpaceOnUse">
      <stop offset="0" stop-color="#333"/>
      <stop offset=".33" stop-color="#353535"/>
      <stop offset=".54" stop-color="#3e3e3e"/>
      <stop offset=".71" stop-color="#4c4c4c"/>
      <stop offset=".87" stop-color="#616161"/>
      <stop offset="1" stop-color="#7a7a7a"/>
    </linearGradient>
    <linearGradient id="linear-gradient-2" x1="260.31" y1="473.4" x2="260.31" y2="587.39" gradientUnits="userSpaceOnUse">
      <stop offset="0" stop-color="#363636"/>
      <stop offset="1" stop-color="#707070"/>
    </linearGradient>
    <linearGradient id="linear-gradient-3" x1="188.37" y1="509.47" x2="188.37" y2="624.13" gradientUnits="userSpaceOnUse">
      <stop offset="0" stop-color="#262626"/>
      <stop offset=".16" stop-color="#2b2b2b"/>
      <stop offset=".37" stop-color="#3b3939"/>
      <stop offset=".6" stop-color="#545252"/>
      <stop offset=".84" stop-color="#787373"/>
      <stop offset="1" stop-color="#948e8e"/>
    </linearGradient>
    <linearGradient id="linear-gradient-4" x1="386.44" y1="558.29" x2="577.14" y2="575.71" gradientUnits="userSpaceOnUse">
      <stop offset="0" stop-color="#255091"/>
      <stop offset="1" stop-color="#234e93"/>
    </linearGradient>
    <clipPath id="clippath-3">
      <circle class="cls-10" cx="359.75" cy="359.75" r="317.72"/>
    </clipPath>
    <linearGradient id="linear-gradient-5" x1="218.25" y1="184.04" x2="426.07" y2="470.34" gradientUnits="userSpaceOnUse">
      <stop offset="0" stop-color="#8c8c8c"/>
      <stop offset=".04" stop-color="#8f8f8f"/>
      <stop offset=".07" stop-color="#989898"/>
      <stop offset=".1" stop-color="#a8a8a8"/>
      <stop offset=".13" stop-color="#bfbfbf"/>
      <stop offset=".14" stop-color="#cfcfcf"/>
      <stop offset=".29" stop-color="#e6e6e6"/>
      <stop offset="1" stop-color="#a1a1a1"/>
    </linearGradient>
    <linearGradient id="linear-gradient-6" x1="294.04" y1="528.37" x2="595.53" y2="476.66" gradientUnits="userSpaceOnUse">
      <stop offset="0" stop-color="#a1a1a1"/>
      <stop offset=".15" stop-color="#ebebeb"/>
      <stop offset=".36" stop-color="#bdbdbd"/>
      <stop offset="1" stop-color="#a8a8a8"/>
    </linearGradient>
    <linearGradient id="linear-gradient-7" x1="386.32" y1="559.8" x2="576.52" y2="574.9" gradientUnits="userSpaceOnUse">
      <stop offset="0" stop-color="#c3c3c3"/>
      <stop offset="1" stop-color="#494949"/>
    </linearGradient>
  </defs>
  <circle class="cls-16" cx="359.75" cy="359.75" r="359.75"/>
  <circle class="cls-19" cx="359.75" cy="359.75" r="331.94"/>
  <circle class="cls-1" cx="359.75" cy="359.75" r="317.72"/>
  <circle class="cls-3" cx="359.75" cy="359.75" r="317.72"/>
  <g class="cls-24">
    <g>
      <path class="cls-22" d="M7.64,450.88l-30.4-54.27c14.34,2.76,27.5,9.32,38.03,18.27,9.1-8.12,16.64-17.49,24.01-26.85,4.55-5.78,8.73-11.78,12.51-17.97,0-.02,0-.04,0-.07.33-16.76.7-33.54-1.74-50.21.07-4.38.64-2.38.48-7.25-.48-7.66-3.76-19.31-7.9-29.29,8.17,9.41,15.94,19.88,18.55,31.61.15,1.02.33,2.03.39,3.06,2.27,6.23,4.21,12.54,5.66,18.93,2.47-7.51,4.42-15.16,6.14-22.83.28-1.95.98-3.85,2.06-5.5,1-7.09,1.98-14.19,2.87-21.29.74-4.31,1.33-8.87,2.06-13.47-1.4-.75-2.85-1.42-4.36-2.01-2.27-.77-4.66-1.22-6.88-2.1-3.58-1.69-4.58-5.53-2.97-8.65.33-.83.72-1.64,1.11-2.45,0-.03.05-.17.18-.5.18-.73.5-1.43.93-2.07.03-1.6.2-3.22.07-4.76.05-10.31.54-20.61.54-30.91,4.16,10.56,7.06,21.46,9.66,32.38.32,1.25.56,2.51.88,3.75.41.96.5,2.01.19,3.03,1.16.22,2.31.52,3.44.86,2.9-10.32,7.94-19.81,18.51-25.99.79-.41,1.6-.8,2.41-1.18.42-4.95.51-10.04,3.17-14.57,1.25-2.82,3.4-5.18,5.29-7.67,0-.06,0-.12,0-.17,0-.04-.01-.07-.02-.12-1.96-7.26-5.49-11.49-10.34-20.69-14.03-6.02-3.24-21.9,1.54-30.56,6.19-10.7,13.92-20.61,23.22-29.45-7.66,13.06-13.17,26.92-17.73,41.01-1.31,5.07-1.66,5.02-1.64,7.98.28.04.55.1.81.21,3.35.92,5.38,3.54,7.13,6.03,2.29,3.36,4.47,6.78,6.54,10.24,3.12,5.93,6.99,12.7,4.67,19.31-1.07,2.79-3.69,4.79-5.81,6.99-1.39,1.63-2.63,3.36-3.6,5.21.86-.48,1.71-.97,2.53-1.5,4.12-3.29,7.82-6.97,11.87-10.33,2.35-2.12,4.53-4.39,7.39-6.01.99-.7,4.12-1.85,5.54-2.32,5.44-2.3,10.99-4.47,16.1-7.31.52-.3,1.02-.61,1.52-.93.04-.03.06-.04.1-.07,4.66-4.28,3-2.06,6.4-7.91.38-.92.66-1.86.87-2.82.04-.56.06-1.11.03-1.67-.06-.22-.13-.44-.21-.65-.14-.19-.29-.4-.49-.65-2.67-2.97-5.04-6.29-5.83-10.04-.78-4-.84-8.18.5-12.09,1.68-4.15,5.16-8.72,10.25-8.05,4.2-2.14,8.21-4.6,12.34-6.85,9.08-4.96,18.35-11.2,29.41-11.83.4-.36,1.94-1.21,2.45-1.65,3.77-2.51,7.47-5.09,11.32-7.49-3.82,4.18-7.44,8.49-11.3,12.64-1,.77-2.49.75-3.68,1.23-4.15,1.6-7.77,4.16-11.17,6.73-5.55,4.39-10.77,9.1-16.4,13.42-2.42,1.89-5.26,4.36-8.29,5.89-.02.61-.02,1.32.08,1.83.03.22.04.36.05.45.22.88.52,1.83.71,2.44,2.55,4,.91,1.03,4.51,5.17,8.94,10.69,1.82,25.96-8.51,33.95-7.43,5.62-16.91,8.38-25.4,12.45.59-.11,1.21-.16,1.82-.17.4-.06.79-.13,1.18-.22,12.48-6.26,28.5-4.04,39.37,3.79,8.72-6.53,18.33-12.13,28.04-17.49-6.51,7.87-13.42,15.48-18.33,21.07-2.56,2.59-4.25,5.92-7.35,8.03-2.94,1.51-6.62.35-8.24-2.05-5.49-2.78-4.84-2.44-9.3-3.75-3.32-.98-11.13-1.16-12.49-.77-2.6.39-5.06,1.15-7.53,1.94-1.26.23-2.53.34-3.81.38-1.23.85-2.66,1.51-4.09,1.95-3.33.93-6.94.83-10.33.21-.86-.24-1.71-.5-2.56-.78-2.18,1.88-4.46,3.66-7.04,5.14-7.43,4.65-18.81,8.41-19.71,10.19-.47.41-.91.84-1.34,1.27-4.6,5.76-5.68,10.12-7.35,17.94,4.11-2.06,8.62-3.4,13.54-3.4,1.72-.05,3.44.08,5.15.22,2.05-1.74,4.91-2.85,7.32-4.14,8.45-3.95,17.61-6.64,26.49-9.76,1.1-.34,2.19-.68,3.29-1.02-.09.06-.17.12-.26.18-8.41,6.35-17.57,11.95-25.6,18.65-.83.7-1.7,1.36-2.47,2.1-.02.04-.06.08-.09.12-.71,1.97-2.34,3.66-4.75,4.17-6.13.74-4.3.23-8.44,1.05-4.8,1-6.79,3.07-12.21,7.83-.96,2.35-2.51,4.47-5.04,5.75-.2.11-.41.19-.61.28-.47,3.7-1,7.81-1.68,12.51-.3,2.22-.67,4.43-.93,6.65.13-.03.25-.06.37-.09.41-.09.82-.18,1.23-.29.09-.11.18-.22.27-.33.44-.69,1.99-2.44,2.74-3.26,2.09-2.62,4.27-5.22,7.09-7.28,5.04-3.56,18.77-9.91,29.16-10.54.88-.88,1.8-1.73,2.67-2.56,13.85-11.46,29.29-21.34,44.05-31.88-10.57,16.21-26.94,32.54-34.35,41.86-.04,3.75-3.44,7.21-8.02,7.18-1.14,0-2.24-.22-3.24-.63-.85.15-2.1.49-5.09,1.31-6.92,2.43-7.84,2.18-16.27,6.48-3.4,2.51-6.21,5.57-9.5,8.18-2.3,1.85-5.4,2.49-8.46,2.61-.2.02-.41.02-.61.03-.19.04-.37.07-.56.11-.15.03-.29.08-.43.12-.5.23-1,.45-1.51.67-2.35,1.01-2.8,1.18-3.23,1.48-.04.18-.09.36-.13.54-.05.22-.09.44-.13.66-.08.47-.2.92-.36,1.37-2.54,10.14-5.87,20.11-10.97,29.51,2.09-.58,4.19-1.13,6.32-1.6,4.78-.9,9.65-1.02,14.51-.69,3.29-.2,6.59-.27,9.88-.16,2.58-1.07,4.99-2.43,7.26-3.93,2.52-1.71,4.88-3.6,7.14-5.57,4.01-3.29,7.08-7.42,11.45-10.36,1.91-1,1.98,1.32,2.47,2.35.74,1.59,1.25,2.12-.48.39-.44-.47-.83-.97-1.2-1.47-.92,1.56-2.55,4.21-3.52,6.2-4.38,8.19-10.05,16.35-18.76,21.58-.52.33-1.42.64-1.9.75-4.2.47-8.25,1.64-12.43,2.18-.78.1-2.33.25-3.21.34-.71.1-1.42.2-2.12.34-7.11,1.62-5.77,1.71-14.06,4.89-3.88,1.68-7.94,3.08-11.68,4.99-1.31,2.12-3.81,3.42-6.51,3.78-8.34,9.43-18.07,17.96-28.52,25.61-5.28,3.99-10.89,7.62-16.87,10.73,11.72,10.6,19.85,24.27,22.19,38.91,1.37-12.96,3.51-27.29,14.78-35.76,8.36,13.37,16.72,26.74,25.07,40.11,7.03-8.19,14.07-16.38,21.1-24.57,8.7,13.45,12.31,29.38,10.14,44.73,8.24-6.66,16.48-13.32,24.72-19.98,6.06,17.51,1.26,37.6-12.3,51.49,4.79,6.49,18.35,4.8,20.88-2.61l-1.79,24.55c6.93-1.8,13.13-5.68,17.33-10.85,7.56,31.52-20.29,66.03-56.67,70.22-16.92-34.14-81.65-32.62-97.62-67.11-6.79-14.65-4.02-34.62-28.58-58.74-2.79-12.9-5.58-25.8-8.37-38.7,14.09,6.28,27.41,13.89,39.64,22.68Z"/>
      <path class="cls-22" d="M688.05,592.94l44.34-46.21c-13.48-1.27-27.16,1.63-39.31,7.7-5.34-10.78-8.91-22.37-12.33-33.9-2.12-7.12-3.82-14.37-5.13-21.68,0-.02.01-.04.02-.07,5.17-17.02,10.3-34.07,17.86-50.21,1.37-4.44.21-2.59,1.93-7.46,2.91-7.6,9.58-18.43,16.46-27.35-10.23,7.2-20.46,15.56-26.56,26.67-.46.98-.95,1.96-1.34,2.98-4.02,5.65-7.77,11.47-11.12,17.52.27-8.29,1.06-16.56,2.04-24.79.39-2.05.4-4.17-.02-6.13,1.43-7.44,2.88-14.89,4.41-22.31.76-4.56,1.72-9.34,2.58-14.19,1.47-.37,2.97-.63,4.48-.79,2.24-.13,4.49.09,6.72-.17,3.69-.7,5.82-4.29,5.42-7.9-.02-.93-.1-1.86-.18-2.79,0-.03.01-.18,0-.55.08-.79.03-1.59-.14-2.36.5-1.62.87-3.31,1.49-4.82,3.31-10.42,6.23-20.96,9.59-31.37-7.09,9.49-13.17,19.67-19.01,29.96-.68,1.17-1.3,2.38-1.99,3.54-.67.85-1.09,1.89-1.15,3.01-1.09-.1-2.2-.12-3.3-.1.82-11.24-.52-22.25-7.79-31.48-.56-.64-1.14-1.26-1.73-1.88,1.24-5.12,2.83-10.29,1.96-15.61-.18-3.2-1.3-6.19-2.15-9.24.02-.06.04-.12.06-.17.02-.04.03-.07.06-.11,4.08-6.77,8.56-10.05,15.81-17.97,14.27-2.11,9.97-21.2,8.59-31.3-1.95-12.55-5.51-24.75-10.79-36.3,2.47,15.35,2.8,30.91,2.22,46.42-.5,5.49-.18,5.54-1.15,8.53-.26-.03-.52-.05-.78-.02-3.24-.02-5.87,2.06-8.22,4.07-3.1,2.74-6.13,5.58-9.08,8.49-4.66,5.11-10.26,10.84-10.38,18.18.03,3.12,1.68,5.87,2.82,8.71.69,2.04,1.21,4.14,1.46,6.28-.6-.72-1.18-1.46-1.74-2.23-2.55-4.49-4.6-9.25-7.05-13.79-1.37-2.8-2.55-5.71-4.53-8.16-.64-.99-3.02-3.03-4.1-3.91-4.03-3.86-8.19-7.62-11.75-11.93-.36-.45-.69-.91-1.03-1.36-.02-.04-.04-.06-.06-.1-2.7-5.64-1.96-2.93-3.05-9.8-.04-1.03.03-2.06.16-3.09.14-.57.31-1.14.52-1.7.12-.21.26-.4.39-.6.18-.15.39-.32.64-.51,3.31-2.24,6.47-4.92,8.38-8.49,1.98-3.82,3.4-8.02,3.49-12.35-.12-4.67-1.69-10.27-6.37-11.03-2.99-3.35-5.71-6.97-8.6-10.4-6.35-7.57-12.46-16.5-21.95-20.26-.24-.48-1.31-1.77-1.62-2.35-2.49-3.6-4.9-7.25-7.5-10.77,1.99,5.3,3.77,10.67,5.8,15.96.63,1.06,1.94,1.46,2.83,2.28,3.12,2.79,5.46,6.4,7.61,9.96,3.44,6.01,6.49,12.23,10.02,18.19,1.51,2.59,3.19,5.89,5.36,8.29-.18.62-.41,1.34-.66,1.82-.09.21-.15.35-.19.44-.48.82-1.05,1.7-1.42,2.27-3.54,3.32-1.13.78-5.64,3.95-11.32,8.27-10.05,25.69-3.58,36.69,4.69,7.78,12.11,13.24,18.24,19.76-.49-.27-1.01-.5-1.55-.69-.33-.17-.65-.35-.96-.55-8.92-9.85-23.7-12.14-35.78-7.31-5.53-9.06-12.14-17.43-18.91-25.58,3.15,9.79,6.74,19.43,9.23,26.46,1.4,3.34,1.8,7.18,3.84,10.19,2.09,2.36,5.69,2.23,7.9.26,5.72-1.25,5.04-1.09,9.38-1.16,3.24-.06,10.15,1.97,11.21,2.75,2.15,1.12,4.07,2.59,5.97,4.08,1.03.59,2.11,1.06,3.22,1.46.8,1.21,1.84,2.28,2.95,3.12,2.62,1.89,5.82,2.8,9,3.13.83,0,1.67-.02,2.5-.07,1.3,2.52,2.72,4.96,4.51,7.19,5.01,6.8,13.77,13.81,13.98,15.86.28.55.53,1.1.77,1.66,2.16,7.12,1.69,11.82.62,20.19-2.93-3.24-6.46-5.87-10.77-7.26-1.5-.54-3.04-.9-4.59-1.24-1.23-2.34-3.39-4.26-5.08-6.25-6.13-6.38-13.29-11.68-20.07-17.34-.85-.65-1.7-1.31-2.55-1.96.06.08.11.17.16.26,5.31,8.79,11.53,17.03,16.4,26.07.5.94,1.05,1.85,1.49,2.82,0,.05.03.1.03.15-.02,2.19.87,4.36,2.81,5.55,5.14,2.48,3.7,1.45,7.07,3.45,3.88,2.37,4.96,5.02,8.16,11.36.08,2.64.75,5.22,2.55,7.23.14.17.29.31.44.46-.79,3.87-1.66,8.16-2.6,13.11-.46,2.32-.86,4.66-1.35,6.98-.1-.06-.19-.13-.3-.19-.33-.21-.66-.42-.98-.64-.04-.14-.09-.27-.13-.41-.16-.83-.95-3.03-1.34-4.07-.98-3.23-2.05-6.48-3.86-9.35-3.27-5.02-13.25-15.31-22.16-18.89-.49-1.14-1.02-2.25-1.51-3.34-8.42-15.49-18.76-29.83-28.28-44.64,4,19.36,13.05,40.48,16.52,51.98-1.18,3.79.68,8.25,4.7,9.52,1,.33,2.04.41,3.04.28.69.39,1.69,1.09,4.04,2.76,5.28,4.42,6.17,4.42,12.17,11.15,2.17,3.49,3.64,7.38,5.67,10.95,1.42,2.52,3.93,4.04,6.57,5.03.17.07.35.14.52.21.15.09.31.17.45.27.12.08.23.16.34.24.37.37.73.74,1.11,1.1,1.73,1.69,2.08,1.98,2.35,2.41-.02.19-.04.39-.06.58-.03.23-.06.47-.1.7-.08.49-.13.99-.13,1.49-1.07,10.95-1.39,21.97.02,32.9-1.65-1.18-3.31-2.33-5.02-3.41-3.9-2.26-8.13-3.75-12.5-4.8-2.82-1.14-5.69-2.14-8.62-2.95-1.91-1.81-3.58-3.87-5.09-6.02-1.66-2.44-3.11-5.01-4.45-7.64-2.44-4.46-3.79-9.5-6.68-13.7-1.35-1.55-2.17.77-2.93,1.67-1.17,1.4-1.78,1.79.29.53.53-.35,1.04-.74,1.53-1.15.3,1.83.87,4.97,1.07,7.26,1.18,9.51,3.5,19.35,9.44,27.09.35.48,1.04,1.05,1.42,1.3,3.53,1.67,6.7,3.99,10.19,5.72.66.32,1.96.91,2.71,1.25.59.3,1.18.6,1.75.95,5.71,3.65,4.5,3.36,10.75,8.92,2.86,2.8,5.96,5.36,8.63,8.34.46,2.51,2.24,4.53,4.48,5.65,4.25,11.88,10.01,23.24,16.69,33.93,3.34,5.53,7.07,10.77,11.31,15.61-13.73,7.4-25.32,18.89-32.14,33.02,3.01-13.48,5.8-28.55-1.33-40.29-11.68,11.14-23.37,22.27-35.05,33.41-3.51-10.26-7.02-20.52-10.52-30.77-12.01,11.12-20.36,26.19-23.46,42.3-5.06-9.05-10.13-18.11-15.19-27.16-11.02,15.96-13.34,37.61-5.96,55.48-6.32,5.2-17.66-.35-17.47-8.54l-6.41,25.29c-5.49-3.78-9.67-9.45-11.67-15.85-16.89,29.69-3.68,72.41,26.88,86.93,25.95-29.69,82.26-9.85,107.49-40.16,10.72-12.88,14.79-33.82,44.19-51.24,6.65-12.24,13.29-24.47,19.94-36.71-14.41,2.35-28.57,6.28-42.16,11.69Z"/>
      <rect class="cls-4" x="81.58" y="456.15" width="69.84" height="216" rx="34.92" ry="34.92"/>
      <polygon class="cls-11" points="291.24 471.77 268.55 471.77 268.55 451.58 250.88 451.58 250.88 471.77 229.37 471.77 229.37 489.12 250.88 489.12 250.88 600.95 268.55 600.95 268.55 489.12 291.24 489.12 291.24 471.77"/>
      <polygon class="cls-17" points="650.12 429.67 628.34 407.88 606.55 429.67 602.59 429.67 602.59 437.67 606.34 437.67 606.34 646.67 650.34 646.67 650.34 437.67 654.09 437.67 654.09 429.67 650.12 429.67"/>
      <polygon class="cls-14" points="229.37 506.24 199.31 506.24 199.31 479.47 175.88 479.47 175.88 506.24 147.37 506.24 147.37 529.24 175.88 529.24 175.88 677.47 199.31 677.47 199.31 529.24 229.37 529.24 229.37 506.24"/>
    </g>
  </g>
  <path class="cls-21" d="M381.79,559.28s82.88-5,135.92,45.44c0,0-3.12-24.46-13.64-36.51,0,0,12.86,1.42,21.52,8.11,0,0,1.83-7.92-9.97-17.04,0,0,39.82-1.48,62.45,24.34,0,0-9.56-61.13-109.46-46.89,0,0,23.99,15.1,17.1,13.22-65.07-17.77-103.91,9.33-103.91,9.33Z"/>
  <path class="cls-12" d="M602.29,209.04c-3.91.26-6.87,3.54-6.71,7.42.17,3.88,3.44,7.96,7.42,9.23-3.75-2.41-8.76-.75-9.94,2.9-1.18,3.65,1.09,8.39,4.74,10.98-3.58-1.95-8.11-.91-9.63,2.23-1.52,3.13.24,7.82,3.73,9.96-3.37-3.17-8.93-1.95-10.68,1.55-1.76,3.49-.58,8.19,1.56,12.15-1.89-3.22-5.58-5.56-9.13-5.79-3.55-.23-6.77,1.67-7.97,4.69-.86-3.53-3.93-6.82-7.51-8.03-3.58-1.22-7.46-.3-8.7,2.3-1.37-3.47-4.72-6.42-8.35-7.36-3.63-.94-7.39.17-9.37,2.77-1.28-7.29,5.15-12.86,12.36-13.58,7.22-.72,14.89,2.13,22.2,4.94-3.2-2.89-6.4-5.78-9.6-8.68,2.74,2.42,7.36,2.67,9.2.9,1.7-1.64,4.7-3.75,3.86-7.06,1.22,4.54.93,9.2,4.46,11.58-.88-5.19,1.64-11.25,4.55-15.67,4.94-7.5,11.33-14.85,23.51-17.43Z"/>
  <circle class="cls-2" cx="359.75" cy="359.75" r="317.72"/>
  <g class="cls-25">
    <g class="cls-23">
      <path class="cls-5" d="M247.79,306.4c-21.69-14.82-38.4-30.68-52.03-66.84-11.41-30.26-18.43-61.94,8.51-80.74,1.06-.74,4.68-2.75,5.92-3.33,33.19-15.57,95.15,34.92,109.92,61.71,14.77,26.8-56.92,99.71-72.32,89.19Z"/>
      <path class="cls-5" d="M258.03,220.94s-10.5,42-13.95,60.67c-5.52,29.87-33.68,56.69-28.59,62.74,7.57,9.01,24.51,6.68,25.82,9.42s-.5,16.49-.98,20.43c0,0,.59,4.36,8.33,6.75,0,0-4.21,6.03-1.26,10.35s5.86,4.73,6.49,18.88c.63,14.15,1.7,21.7,10.14,25.62,8.45,3.92,24.54,1.56,38.43-3.37,13.89-4.94,31.33-15.87,34.38-9.44,3.06,6.43,8.76,24.27,8.76,24.27,0,0-50.79,21.12-51.24,34.61,0,0,7.18,8.27,11.69,13.71,0,0-16.24.78-18.65,12.36-2.41,11.58,9.44,23.37,9.44,23.37,0,0-82.69,74.09-99.7,98.21-17.01,24.12,46.08,46.03,87.16,59.73,41.08,13.7,171.18,26.77,254.64-30.25,83.46-57.02,97.24-97.61,79.76-111.27-17.48-13.66-34.8-28.59-34.8-28.59,0,0,20.37-35.66,11.44-45.99-8.93-10.34-45.14-35.45-64.51-26.26-19.37,9.19-20.86-39.24-24.61-72.26-3.75-33.02-8.3-173.31-49.17-195.29-40.87-21.98-72.15-28.8-116.11-18.58-43.97,10.22-71.82,27.69-82.9,60.19Z"/>
      <path class="cls-5" d="M567.3,149.64s-83.63-86.84-196.43-59.3c-99.81,24.36-169.51,64.39-177.95,79.55,0,0,15.9-15.34,42.89,11.65,10.82,10.82,43.92,50.49,76.92,101.1,33.01,50.61,56.29,73.85,84.93,102.49,28.06,28.06,70.51,33.93,49.24,63.42-30.89,42.82-85.83,74.32-85.83,74.32,0,0,182.85-52.73,207.31-74.73,24.46-22,50.03-41.2,31.68-75.08-14.77-27.27-66.66-130.64-66.66-187.7,0,0,7.66-15,33.88-35.72Z"/>
      <path class="cls-9" d="M480.47,435.07c26.54-26.54-18.28-41.91-56.09-71.64-38.25-30.07-65.8-58.42-105.25-127.04-35.01-60.92-63.44-83.46-89.64-93.49-20.4,11.2-33.25,21.02-36.57,26.99,0,0,15.9-15.34,42.89,11.65,10.82,10.82,43.92,50.49,76.92,101.1,33.01,50.61,56.29,73.85,84.93,102.49,28.06,28.06,70.51,33.93,49.24,63.42-30.89,42.82-85.83,74.32-85.83,74.32,0,0,2.93-.84,8.07-2.36,25.14-11.89,86.43-60.57,111.3-85.44Z"/>
      <path class="cls-6" d="M583.83,519.17s19.02-38.23,12.54-45.43c-10.81-12-43.54-39.49-74.13-22.57-40.2,22.23-167.49,86.11-167.49,86.11,0,0-38.65-11.98-40.41-12.82-1.76-.84-4.59-1.39-6,1.9-1.41,3.29,4.82,5.27,4.82,5.27,0,0,29.84,14.31,38.26,14.31,0,0,17.24-5.71,43.94-16.94,26.7-11.23,93.15-36.99,115.11-43.19,24.3-6.85,50.01-13.23,58.22,2.85,8.21,16.09,15.14,30.5,15.14,30.5Z"/>
      <path class="cls-18" d="M338.42,519.56s-21.21-39.38-29.1-43.24c-7.89-3.85-17.09.24-15.78,4.71,1.32,4.48,9.95,15.2,19.06,21.11,9.1,5.9,25.82,17.42,25.82,17.42Z"/>
      <path class="cls-15" d="M324.34,557.34s-26.89,8.66-44.92,22.04c-18.03,13.39-35.96,36.44-21.63,36.82,14.33.38,29.2-21.21,35.42-27.77,6.22-6.57,31.13-31.09,31.13-31.09Z"/>
      <path class="cls-7" d="M349.3,557.15s23.93,22.19,34.95,43.38c11.02,21.2,15.53,50.41-.53,42.76-16.06-7.66-18.17-33.94-20.68-42.88-2.51-8.94-13.74-43.26-13.74-43.26Z"/>
      <path class="cls-8" d="M310.42,629.99s11.57,14.92,19.05-.42c7.49-15.34,8.56-61.1,12.72-76.01,0,0-14.17,30.76-18.26,40.23-8.71,20.21-17.53,32.04-13.52,36.2Z"/>
    </g>
  </g>
  <path class="cls-20" d="M567.3,149.64s-51.82-54.74-131.79-63.61c-79.4-8.82-177.49,35.35-233.67,74.37,0,0,66.53-44.73,157.91-61.75,50.63-9.43,124.52-10.92,207.55,50.99Z"/>
  <path class="cls-13" d="M381.79,559.28s82.88-5,135.92,45.44c0,0-3.12-24.46-13.64-36.51,0,0,12.86,1.42,21.52,8.11,0,0,1.83-7.92-9.97-17.04,0,0,39.82-1.48,62.45,24.34,0,0-9.56-61.13-109.46-46.89,0,0,23.99,15.1,17.1,13.22-65.07-17.77-103.91,9.33-103.91,9.33Z"/>
  <path class="cls-12" d="M100.41,422.41c2.97-2.55,7.75-2.67,10.84-.26s4.15,7.07,2.4,10.57c.65-4.01,5.54-6.5,9.38-5.16s6.15,5.7,5.72,9.74c.9-3.63,4.96-6.14,8.61-5.35s6.29,4.77,5.6,8.45c-.25-4.2,4.67-7.32,8.79-6.48,4.12.84,7.16,4.42,8.93,8.24-1.33-3.2-.66-7.14,1.64-9.72s6.14-3.7,9.47-2.74c-2.31-2.67-2.86-6.73-1.35-9.92s5-5.34,8.01-4.66c-1.9-2.99-1.98-7.04-.2-10.11s5.33-5.01,8.87-4.84c-5.11-5.18-14.23-4.02-19.9.55s-8.72,11.55-11.53,18.26c-.14-3.92-.27-7.83-.41-11.75.07,3.32-2.97,6.66-5.72,6.89-2.54.21-6.4,1.05-8.54-1.49,2.89,3.52,6.94,6.06,6.42,9.9-3.66-3.66-10.43-5.49-16.13-6.08-9.66-1-20.21-.92-30.9,5.98Z"/>
  <path class="cls-12" d="M223.83,327.98c-1.3-2.86-4.58-4.15-7.44-2.93-2.86,1.22-4.99,4.82-4.83,8.16.75-3.49-1.9-6.77-4.97-6.63-3.07.14-5.98,3.18-6.89,6.64.46-3.23-1.6-6.33-4.38-6.59-2.77-.25-5.79,2.38-6.41,5.6,1.43-3.41-1.05-7.23-4.16-7.57s-6.3,1.87-8.66,4.59c1.88-2.32,2.59-5.75,1.77-8.47-.83-2.72-3.16-4.6-5.76-4.65,2.4-1.64,4-4.86,3.9-7.88-.1-3.02-1.88-5.67-4.17-5.87,2.21-2,3.48-5.34,3.16-8.33-.32-2.98-2.21-5.48-4.71-6.24,5.1-3.01,11.08.23,13.65,5.44,2.57,5.2,2.6,11.75,2.55,18.02,1.26-3.21,2.53-6.42,3.79-9.63-1.04,2.73.07,6.26,1.91,7.14,1.7.81,4.13,2.47,6.37.9-3.06,2.19-6.63,3.29-7.41,6.6,3.64-2.12,8.89-1.94,13.01-1,7.01,1.59,14.31,4.3,19.67,12.7Z"/>
</svg>