<?xml version="1.0" encoding="UTF-8"?>
<svg id="Layer_1" data-name="Layer 1" xmlns="http://www.w3.org/2000/svg" xmlns:xlink="http://www.w3.org/1999/xlink" viewBox="0 0 759.75 719.5">
  <defs>
    <style>
      .cls-1 {
        fill: url(#radial-gradient);
      }

      .cls-1, .cls-2 {
        stroke: #021f57;
        stroke-miterlimit: 10;
        stroke-width: 7px;
      }

      .cls-2, .cls-3 {
        fill: none;
      }

      .cls-4 {
        fill: url(#linear-gradient);
      }

      .cls-4, .cls-5, .cls-6, .cls-7, .cls-3, .cls-8, .cls-9, .cls-10, .cls-11, .cls-12, .cls-13, .cls-14, .cls-15, .cls-16, .cls-17 {
        stroke-width: 0px;
      }

      .cls-5 {
        fill: #000;
      }

      .cls-18 {
        clip-path: url(#clippath-2);
      }

      .cls-6 {
        fill: #f0f6ff;
      }

      .cls-7 {
        fill: #aac7e6;
      }

      .cls-19 {
        clip-path: url(#clippath-1);
      }

      .cls-8 {
        fill: #345f9b;
      }

      .cls-9 {
        fill: url(#linear-gradient-2);
      }

      .cls-10 {
        fill: url(#radial-gradient-2);
      }

      .cls-11 {
        fill: url(#linear-gradient-3);
      }

      .cls-12 {
        fill: #1e437c;
      }

      .cls-13 {
        fill: url(#radial-gradient-5);
      }

      .cls-14 {
        fill: #021f57;
      }

      .cls-15 {
        fill: url(#radial-gradient-3);
      }

      .cls-16 {
        fill: url(#linear-gradient-4);
      }

      .cls-17 {
        fill: url(#radial-gradient-4);
      }
    </style>
    <radialGradient id="radial-gradient" cx="409.64" cy="322.71" fx="409.64" fy="322.71" r="310.97" gradientTransform="translate(0 2.23)" gradientUnits="userSpaceOnUse">
      <stop offset="0" stop-color="#a6c5ea"/>
      <stop offset=".24" stop-color="#a3c2e8"/>
      <stop offset=".4" stop-color="#9abae2"/>
      <stop offset=".53" stop-color="#8bacd8"/>
      <stop offset=".66" stop-color="#7599ca"/>
      <stop offset=".77" stop-color="#5a80b9"/>
      <stop offset=".88" stop-color="#3862a3"/>
      <stop offset=".98" stop-color="#103e89"/>
      <stop offset="1" stop-color="#083784"/>
    </radialGradient>
    <clipPath id="clippath-1">
      <circle class="cls-3" cx="400" cy="359.75" r="317.72"/>
    </clipPath>
    <radialGradient id="radial-gradient-2" cx="267.86" cy="454.44" fx="267.86" fy="454.44" r="175.81" gradientUnits="userSpaceOnUse">
      <stop offset="0" stop-color="#b9cbe4"/>
      <stop offset="1" stop-color="#628bbf"/>
    </radialGradient>
    <radialGradient id="radial-gradient-3" cx="726.02" cy="453.54" fx="726.02" fy="453.54" r="151.83" gradientUnits="userSpaceOnUse">
      <stop offset="0" stop-color="#668dc0"/>
      <stop offset="1" stop-color="#abc2df"/>
    </radialGradient>
    <radialGradient id="radial-gradient-4" cx="184.51" cy="566.55" fx="184.51" fy="566.55" r="130.54" gradientUnits="userSpaceOnUse">
      <stop offset="0" stop-color="#7196ca"/>
      <stop offset="1" stop-color="#2d5a9d"/>
    </radialGradient>
    <radialGradient id="radial-gradient-5" cx="614.9" cy="562.85" fx="614.9" fy="562.85" r="130.54" gradientTransform="translate(1195.71 -61.15) rotate(177.13) scale(.97 -.96) skewX(-.83)" xlink:href="#radial-gradient-4"/>
    <linearGradient id="linear-gradient" x1="426.69" y1="558.29" x2="617.39" y2="575.71" gradientUnits="userSpaceOnUse">
      <stop offset="0" stop-color="#255091"/>
      <stop offset="1" stop-color="#234e93"/>
    </linearGradient>
    <clipPath id="clippath-2">
      <circle class="cls-3" cx="400" cy="359.75" r="317.72"/>
    </clipPath>
    <linearGradient id="linear-gradient-2" x1="261.18" y1="197.11" x2="466.4" y2="470.29" gradientUnits="userSpaceOnUse">
      <stop offset="0" stop-color="#557eba"/>
      <stop offset=".21" stop-color="#5f88c3"/>
      <stop offset="1" stop-color="#315b9a"/>
    </linearGradient>
    <linearGradient id="linear-gradient-3" x1="334.29" y1="528.37" x2="635.78" y2="476.66" gradientUnits="userSpaceOnUse">
      <stop offset="0" stop-color="#2d589b"/>
      <stop offset=".36" stop-color="#305ca1"/>
      <stop offset="1" stop-color="#1d4d93"/>
    </linearGradient>
    <linearGradient id="linear-gradient-4" x1="429.47" y1="558.29" x2="620.17" y2="575.71" gradientUnits="userSpaceOnUse">
      <stop offset="0" stop-color="#557eba"/>
      <stop offset="1" stop-color="#27559a"/>
    </linearGradient>
  </defs>
  <circle class="cls-14" cx="400" cy="359.75" r="359.75"/>
  <circle class="cls-8" cx="400" cy="359.75" r="331.94"/>
  <circle class="cls-1" cx="400" cy="359.75" r="317.72"/>
  <circle class="cls-1" cx="400" cy="359.75" r="317.72"/>
  <path class="cls-6" d="M224.14,310.02c-42.12-10.98-67.37-54.03-56.38-96.15,5.16-19.81,17.42-35.88,33.33-46.21-32.22,2.87-60.64,25.54-69.27,58.64-10.98,42.12,14.26,85.17,56.38,96.15,22.32,5.82,44.89,1.47,62.82-10.17-8.79.78-17.86.1-26.88-2.26Z"/>
  <g class="cls-19">
    <g>
      <path class="cls-10" d="M298.97,512.03c-2.01,0-3.97.23-5.85.65,0-.22.02-.43.02-.65,0-14.81-12.01-26.82-26.82-26.82-11.7,0-21.65,7.5-25.31,17.95-.5-.03-1-.04-1.51-.04-8.87,0-16.73,4.31-21.61,10.94-4.81-4.59-11.32-7.41-18.5-7.41-.37,0-.74.01-1.1.03,8.67-5.76,14.39-15.61,14.39-26.8,0-16.89-13.03-30.74-29.58-32.05-.44-17.38-14.65-31.34-32.14-31.34-3.89,0-7.61.69-11.06,1.95-6.4-6.1-15.05-9.85-24.59-9.85-1.12,0-2.22.06-3.31.16-4.87-5.02-11.69-8.15-19.24-8.15-14.81,0-26.82,12.01-26.82,26.82,0,10.33,5.84,19.29,14.4,23.77,2.3,11.62,10.25,21.21,20.87,25.79-8.79,8.63-14.33,21.14-14.33,35.06,0,26.03,19.32,47.12,43.15,47.12,7.96,0,15.41-2.36,21.82-6.47,1.15,1.12,2.39,2.14,3.72,3.03-5.16,7.76-8.2,17.31-8.2,27.64,0,26.03,19.32,47.12,43.15,47.12,14.48,0,27.29-7.8,35.12-19.76,7.78,8.33,18.43,13.47,30.19,13.47,23.83,0,43.15-21.1,43.15-47.12,0-3.94-.45-7.77-1.28-11.42.43.02.85.03,1.28.03,14.81,0,26.82-12.01,26.82-26.82s-12.01-26.82-26.82-26.82Z"/>
      <path class="cls-15" d="M729.84,341.11c0,2.19-.25,4.33-.71,6.38.24,0,.47-.02.71-.02,16.15,0,29.24,13.09,29.24,29.24,0,12.76-8.18,23.61-19.57,27.6.03.54.05,1.09.05,1.64,0,9.67-4.69,18.24-11.93,23.56,5,5.25,8.08,12.35,8.08,20.17,0,.4-.01.8-.03,1.2,6.28-9.45,17.02-15.69,29.23-15.69,18.42,0,33.51,14.21,34.95,32.26,18.96.47,34.18,15.98,34.18,35.05,0,4.24-.75,8.3-2.13,12.06,6.65,6.98,10.74,16.41,10.74,26.81,0,1.22-.06,2.42-.17,3.61,5.48,5.31,8.88,12.75,8.88,20.98,0,16.15-13.09,29.24-29.24,29.24-11.26,0-21.04-6.37-25.92-15.71-12.68-2.51-23.13-11.18-28.12-22.76-9.41,9.59-23.05,15.62-38.23,15.62-28.38,0-51.38-21.06-51.38-47.05,0-8.68,2.58-16.81,7.06-23.79-1.22-1.25-2.33-2.61-3.31-4.06-8.46,5.62-18.88,8.94-30.14,8.94-28.38,0-51.38-21.06-51.38-47.05,0-15.79,8.51-29.76,21.55-38.29-9.08-8.49-14.69-20.1-14.69-32.92,0-25.98,23.01-47.05,51.38-47.05,4.3,0,8.47.49,12.46,1.4-.02-.46-.04-.93-.04-1.4,0-16.15,13.09-29.24,29.24-29.24s29.24,13.09,29.24,29.24Z"/>
      <path class="cls-17" d="M134.64,466.42c.82,2.04,1.38,4.11,1.73,6.19.22-.09.43-.19.65-.28,14.98-6.03,32.02,1.23,38.05,16.21,4.76,11.84,1.23,24.95-7.86,32.91.23.49.45,1,.66,1.51,3.61,8.97,2.45,18.67-2.27,26.31,6.6,3,12.11,8.44,15.03,15.7.15.37.29.75.42,1.13,2.3-11.12,9.94-20.91,21.26-25.46,17.09-6.88,36.39.67,44.46,16.88,17.76-6.64,37.67,2.07,44.79,19.76,1.58,3.93,2.4,7.98,2.53,11.98,8.77,3.99,16.09,11.22,19.97,20.86.45,1.13.84,2.27,1.19,3.41,7.06,2.89,13,8.51,16.07,16.15,6.03,14.98-1.23,32.02-16.21,38.05-10.45,4.2-21.89,1.94-29.91-4.9-12.7,2.4-25.63-1.73-34.59-10.61-5.15,12.41-15.55,23.1-29.64,28.76-26.33,10.59-55.53-.36-65.23-24.47-3.24-8.05-3.88-16.56-2.33-24.7-1.6-.71-3.13-1.55-4.58-2.53-5.75,8.38-14.17,15.34-24.62,19.55-26.33,10.59-55.53-.36-65.23-24.47-5.9-14.65-3.21-30.78,5.7-43.57-11.59-4.48-21.13-13.17-25.91-25.06-9.7-24.11,3.78-52.24,30.11-62.83,3.99-1.6,8.04-2.71,12.08-3.35-.19-.42-.38-.85-.56-1.29-6.03-14.98,1.23-32.02,16.21-38.05,14.98-6.03,32.02,1.23,38.05,16.21Z"/>
      <path class="cls-13" d="M676.62,407.6c-.67,1.98-1.09,3.99-1.29,5.98-.22-.08-.43-.16-.65-.24-14.9-5.02-30.96,2.73-35.88,17.31-3.89,11.52.35,23.86,9.65,31.01-.19.48-.38.97-.55,1.47-2.94,8.73-1.22,17.93,3.83,24.98-6.21,3.18-11.21,8.64-13.59,15.7-.12.36-.23.73-.34,1.09-2.92-10.49-10.93-19.46-22.18-23.26-16.99-5.73-35.24,2.4-42.06,18.26-17.63-5.47-36.39,3.8-42.2,21.02-1.29,3.83-1.83,7.73-1.71,11.55-8.26,4.23-14.9,11.48-18.07,20.87-.37,1.1-.68,2.2-.94,3.31-6.67,3.1-12.07,8.75-14.58,16.18-4.92,14.58,3.17,30.48,18.07,35.5,10.39,3.5,21.34.79,28.69-6.12,12.45,1.68,24.74-2.9,32.87-11.8,5.76,11.58,16.5,21.27,30.51,26,26.18,8.83,53.81-3.04,61.72-26.5,2.64-7.84,2.74-15.98.73-23.67,1.5-.75,2.94-1.63,4.29-2.64,6.1,7.71,14.69,13.95,25.07,17.45,26.18,8.83,53.81-3.04,61.72-26.5,4.81-14.26,1.21-29.52-8.22-41.28,10.96-4.84,19.66-13.58,23.57-25.16,7.91-23.46-6.89-49.64-33.07-58.46-3.96-1.34-7.96-2.19-11.92-2.61.16-.41.32-.83.46-1.25,4.92-14.58-3.17-30.48-18.07-35.5-14.9-5.02-30.96,2.73-35.88,17.31Z"/>
    </g>
  </g>
  <circle class="cls-2" cx="400" cy="359.75" r="317.72"/>
  <path class="cls-4" d="M422.04,559.28s82.88-5,135.92,45.44c0,0-3.12-24.46-13.64-36.51,0,0,12.86,1.42,21.52,8.11,0,0,1.83-7.92-9.97-17.04,0,0,39.82-1.48,62.45,24.34,0,0-9.56-61.13-109.46-46.89,0,0,23.99,15.1,17.1,13.22-65.07-17.77-103.91,9.33-103.91,9.33Z"/>
  <path class="cls-7" d="M607.55,149.64s-51.82-54.74-131.79-63.61c-79.4-8.82-177.49,35.35-233.67,74.37,0,0,66.53-44.73,157.91-61.75,50.63-9.43,124.52-10.92,207.55,50.99Z"/>
  <path class="cls-6" d="M336.28,96.63c-1.11-.35-2.21-.64-3.32-.91-2.21-.53-4.42-.96-6.63-1.28-3.02-.44-6.03-.71-9.05-.83-.13-3.02-.39-6.03-.83-9.05-.32-2.21-.74-4.42-1.28-6.63-.28-1.11-.57-2.21-.91-3.32-.34-1.11-.72-2.21-1.2-3.32-.48,1.11-.85,2.21-1.2,3.32-.35,1.11-.64,2.21-.91,3.32-.53,2.21-.96,4.42-1.28,6.63-.44,3.01-.7,6.03-.83,9.04-3.02.13-6.03.39-9.05.83-2.21.32-4.42.74-6.63,1.28-1.11.28-2.21.57-3.32.92-1.11.34-2.21.72-3.32,1.2,1.11.48,2.21.86,3.32,1.2,1.11.35,2.21.64,3.32.92,2.21.53,4.42.96,6.63,1.28,3.01.44,6.03.7,9.04.83.13,3.01.39,6.03.83,9.04.32,2.21.74,4.42,1.28,6.63.28,1.11.57,2.21.92,3.32.34,1.11.72,2.21,1.2,3.32.48-1.11.86-2.21,1.2-3.32.35-1.11.64-2.21.92-3.32.53-2.21.96-4.42,1.28-6.63.44-3.02.7-6.03.83-9.05,3.01-.13,6.03-.39,9.04-.83,2.21-.32,4.42-.74,6.63-1.28,1.11-.28,2.21-.57,3.32-.91,1.11-.34,2.21-.72,3.32-1.2-1.11-.48-2.21-.85-3.32-1.2Z"/>
  <path class="cls-6" d="M152.47,362.66c-1.11-.35-2.21-.64-3.32-.91-2.21-.53-4.42-.96-6.63-1.28-3.02-.44-6.03-.71-9.05-.83-.13-3.02-.39-6.03-.83-9.05-.32-2.21-.74-4.42-1.28-6.63-.28-1.11-.57-2.21-.91-3.32-.34-1.11-.72-2.21-1.2-3.32-.48,1.11-.85,2.21-1.2,3.32-.35,1.11-.64,2.21-.91,3.32-.53,2.21-.96,4.42-1.28,6.63-.44,3.01-.7,6.03-.83,9.04-3.02.13-6.03.39-9.05.83-2.21.32-4.42.74-6.63,1.28-1.11.28-2.21.57-3.32.92-1.11.34-2.21.72-3.32,1.2,1.11.48,2.21.86,3.32,1.2,1.11.35,2.21.64,3.32.92,2.21.53,4.42.96,6.63,1.28,3.01.44,6.03.7,9.04.83.13,3.01.39,6.03.83,9.04.32,2.21.74,4.42,1.28,6.63.28,1.11.57,2.21.92,3.32.34,1.11.72,2.21,1.2,3.32.48-1.11.86-2.21,1.2-3.32.35-1.11.64-2.21.92-3.32.53-2.21.96-4.42,1.28-6.63.44-3.02.7-6.03.83-9.05,3.01-.13,6.03-.39,9.04-.83,2.21-.32,4.42-.74,6.63-1.28,1.11-.28,2.21-.57,3.32-.91,1.11-.34,2.21-.72,3.32-1.2-1.11-.48-2.21-.85-3.32-1.2Z"/>
  <path class="cls-6" d="M205.56,411.22c-.73-.23-1.47-.42-2.2-.61-1.47-.35-2.94-.64-4.41-.85-2-.29-4.01-.47-6.01-.55-.09-2-.26-4.01-.55-6.01-.21-1.47-.49-2.94-.85-4.41-.18-.73-.38-1.47-.61-2.2-.23-.73-.48-1.47-.8-2.2-.32.73-.57,1.47-.8,2.2-.23.73-.42,1.47-.61,2.2-.35,1.47-.64,2.94-.85,4.41-.29,2-.47,4-.55,6-2,.08-4.01.26-6.01.55-1.47.21-2.94.49-4.41.85-.73.18-1.47.38-2.2.61-.73.23-1.47.48-2.2.8.73.32,1.47.57,2.2.8.73.23,1.47.43,2.2.61,1.47.35,2.94.64,4.41.85,2,.29,4,.47,6,.55.08,2,.26,4,.55,6,.21,1.47.49,2.94.85,4.41.18.73.38,1.47.61,2.2.23.73.48,1.47.8,2.2.32-.73.57-1.47.8-2.2.23-.73.43-1.47.61-2.2.35-1.47.64-2.94.85-4.41.29-2,.47-4.01.55-6.01,2-.09,4-.26,6-.55,1.47-.21,2.94-.49,4.41-.85.73-.18,1.47-.38,2.2-.61.73-.23,1.47-.48,2.2-.8-.73-.32-1.47-.57-2.2-.8Z"/>
  <path class="cls-6" d="M294.56,467.22c-.73-.23-1.47-.42-2.2-.61-1.47-.35-2.94-.64-4.41-.85-2-.29-4.01-.47-6.01-.55-.09-2-.26-4.01-.55-6.01-.21-1.47-.49-2.94-.85-4.41-.18-.73-.38-1.47-.61-2.2-.23-.73-.48-1.47-.8-2.2-.32.73-.57,1.47-.8,2.2-.23.73-.42,1.47-.61,2.2-.35,1.47-.64,2.94-.85,4.41-.29,2-.47,4-.55,6-2,.08-4.01.26-6.01.55-1.47.21-2.94.49-4.41.85-.73.18-1.47.38-2.2.61-.73.23-1.47.48-2.2.8.73.32,1.47.57,2.2.8.73.23,1.47.43,2.2.61,1.47.35,2.94.64,4.41.85,2,.29,4,.47,6,.55.08,2,.26,4,.55,6,.21,1.47.49,2.94.85,4.41.18.73.38,1.47.61,2.2.23.73.48,1.47.8,2.2.32-.73.57-1.47.8-2.2.23-.73.43-1.47.61-2.2.35-1.47.64-2.94.85-4.41.29-2,.47-4.01.55-6.01,2-.09,4-.26,6-.55,1.47-.21,2.94-.49,4.41-.85.73-.18,1.47-.38,2.2-.61.73-.23,1.47-.48,2.2-.8-.73-.32-1.47-.57-2.2-.8Z"/>
  <path class="cls-6" d="M633.73,215.88c-.73-.23-1.47-.42-2.2-.61-1.47-.35-2.94-.64-4.41-.85-2-.29-4.01-.47-6.01-.55-.09-2-.26-4.01-.55-6.01-.21-1.47-.49-2.94-.85-4.41-.18-.73-.38-1.47-.61-2.2-.23-.73-.48-1.47-.8-2.2-.32.73-.57,1.47-.8,2.2-.23.73-.42,1.47-.61,2.2-.35,1.47-.64,2.94-.85,4.41-.29,2-.47,4-.55,6-2,.08-4.01.26-6.01.55-1.47.21-2.94.49-4.41.85-.73.18-1.47.38-2.2.61-.73.23-1.47.48-2.2.8.73.32,1.47.57,2.2.8.73.23,1.47.43,2.2.61,1.47.35,2.94.64,4.41.85,2,.29,4,.47,6,.55.08,2,.26,4,.55,6,.21,1.47.49,2.94.85,4.41.18.73.38,1.47.61,2.2.23.73.48,1.47.8,2.2.32-.73.57-1.47.8-2.2.23-.73.43-1.47.61-2.2.35-1.47.64-2.94.85-4.41.29-2,.47-4.01.55-6.01,2-.09,4-.26,6-.55,1.47-.21,2.94-.49,4.41-.85.73-.18,1.47-.38,2.2-.61.73-.23,1.47-.48,2.2-.8-.73-.32-1.47-.57-2.2-.8Z"/>
  <path class="cls-6" d="M651.36,289.79c-.73-.23-1.47-.42-2.2-.61-1.47-.35-2.94-.64-4.41-.85-2-.29-4.01-.47-6.01-.55-.09-2-.26-4.01-.55-6.01-.21-1.47-.49-2.94-.85-4.41-.18-.73-.38-1.47-.61-2.2-.23-.73-.48-1.47-.8-2.2-.32.73-.57,1.47-.8,2.2-.23.73-.42,1.47-.61,2.2-.35,1.47-.64,2.94-.85,4.41-.29,2-.47,4-.55,6-2,.08-4.01.26-6.01.55-1.47.21-2.94.49-4.41.85-.73.18-1.47.38-2.2.61-.73.23-1.47.48-2.2.8.73.32,1.47.57,2.2.8.73.23,1.47.43,2.2.61,1.47.35,2.94.64,4.41.85,2,.29,4,.47,6,.55.08,2,.26,4,.55,6,.21,1.47.49,2.94.85,4.41.18.73.38,1.47.61,2.2.23.73.48,1.47.8,2.2.32-.73.57-1.47.8-2.2.23-.73.43-1.47.61-2.2.35-1.47.64-2.94.85-4.41.29-2,.47-4.01.55-6.01,2-.09,4-.26,6-.55,1.47-.21,2.94-.49,4.41-.85.73-.18,1.47-.38,2.2-.61.73-.23,1.47-.48,2.2-.8-.73-.32-1.47-.57-2.2-.8Z"/>
  <g class="cls-18">
    <g>
      <path class="cls-5" d="M288.04,306.4c-21.69-14.82-38.4-30.68-52.03-66.84-11.41-30.26-18.43-61.94,8.51-80.74,1.06-.74,4.68-2.75,5.92-3.33,33.19-15.57,95.15,34.92,109.92,61.71,14.77,26.8-56.92,99.71-72.32,89.19Z"/>
      <path class="cls-5" d="M298.28,220.94s-10.5,42-13.95,60.67c-5.52,29.87-33.68,56.69-28.59,62.74,7.57,9.01,24.51,6.68,25.82,9.42s-.5,16.49-.98,20.43c0,0,.59,4.36,8.33,6.75,0,0-4.21,6.03-1.26,10.35s5.86,4.73,6.49,18.88c.63,14.15,1.7,21.7,10.14,25.62,8.45,3.92,24.54,1.56,38.43-3.37,13.89-4.94,31.33-15.87,34.38-9.44,3.06,6.43,8.76,24.27,8.76,24.27,0,0-50.79,21.12-51.24,34.61,0,0,7.18,8.27,11.69,13.71,0,0-16.24.78-18.65,12.36-2.41,11.58,9.44,23.37,9.44,23.37,0,0-82.69,74.09-99.7,98.21-17.01,24.12,46.08,46.03,87.16,59.73,41.08,13.7,171.18,26.77,254.64-30.25,83.46-57.02,97.24-97.61,79.76-111.27-17.48-13.66-34.8-28.59-34.8-28.59,0,0,20.37-35.66,11.44-45.99-8.93-10.34-45.14-35.45-64.51-26.26-19.37,9.19-20.86-39.24-24.61-72.26-3.75-33.02-8.3-173.31-49.17-195.29-40.87-21.98-72.15-28.8-116.11-18.58-43.97,10.22-71.82,27.69-82.9,60.19Z"/>
      <path class="cls-5" d="M607.55,149.64s-83.63-86.84-196.43-59.3c-99.81,24.36-169.51,64.39-177.95,79.55,0,0,15.9-15.34,42.89,11.65,10.82,10.82,43.92,50.49,76.92,101.1,33.01,50.61,56.29,73.85,84.93,102.49,28.06,28.06,70.51,33.93,49.24,63.42-30.89,42.82-85.83,74.32-85.83,74.32,0,0,182.85-52.73,207.31-74.73,24.46-22,50.03-41.2,31.68-75.08-14.77-27.27-66.66-130.64-66.66-187.7,0,0,7.66-15,33.88-35.72Z"/>
      <path class="cls-9" d="M520.72,435.07c26.54-26.54-18.28-41.91-56.09-71.64-38.25-30.07-65.8-58.42-105.25-127.04-35.01-60.92-63.44-83.46-89.64-93.49-20.4,11.2-33.25,21.02-36.57,26.99,0,0,15.9-15.34,42.89,11.65,10.82,10.82,43.92,50.49,76.92,101.1,33.01,50.61,56.29,73.85,84.93,102.49,28.06,28.06,70.51,33.93,49.24,63.42-30.89,42.82-85.83,74.32-85.83,74.32,0,0,2.93-.84,8.07-2.36,25.14-11.89,86.43-60.57,111.3-85.44Z"/>
      <path class="cls-11" d="M624.08,519.17s19.02-38.23,12.54-45.43c-10.81-12-43.54-39.49-74.13-22.57-40.2,22.23-167.49,86.11-167.49,86.11,0,0-38.65-11.98-40.41-12.82-1.76-.84-4.59-1.39-6,1.9-1.41,3.29,4.82,5.27,4.82,5.27,0,0,29.84,14.31,38.26,14.31,0,0,17.24-5.71,43.94-16.94,26.7-11.23,93.15-36.99,115.11-43.19,24.3-6.85,50.01-13.23,58.22,2.85,8.21,16.09,15.14,30.5,15.14,30.5Z"/>
      <path class="cls-12" d="M378.67,519.56s-21.21-39.38-29.1-43.24c-7.89-3.85-17.09.24-15.78,4.71,1.32,4.48,9.95,15.2,19.06,21.11,9.1,5.9,25.82,17.42,25.82,17.42Z"/>
      <path class="cls-12" d="M364.59,557.34s-26.89,8.66-44.92,22.04c-18.03,13.39-35.96,36.44-21.63,36.82,14.33.38,29.2-21.21,35.42-27.77,6.22-6.57,31.13-31.09,31.13-31.09Z"/>
      <path class="cls-12" d="M389.55,557.15s23.93,22.19,34.95,43.38c11.02,21.2,15.53,50.41-.53,42.76-16.06-7.66-18.17-33.94-20.68-42.88-2.51-8.94-13.74-43.26-13.74-43.26Z"/>
      <path class="cls-12" d="M350.67,629.99s11.57,14.92,19.05-.42c7.49-15.34,8.56-61.1,12.72-76.01,0,0-14.17,30.76-18.26,40.23-8.71,20.21-17.53,32.04-13.52,36.2Z"/>
    </g>
  </g>
  <path class="cls-16" d="M424.82,559.28s82.88-5,135.92,45.44c0,0-3.12-24.46-13.64-36.51,0,0,12.86,1.42,21.52,8.11,0,0,1.83-7.92-9.97-17.04,0,0,39.82-1.48,62.45,24.34,0,0-9.56-61.13-109.46-46.89,0,0,23.99,15.1,17.1,13.22-65.07-17.77-103.91,9.33-103.91,9.33Z"/>
</svg>