<?xml version="1.0" encoding="UTF-8"?>
<svg id="Layer_1" data-name="Layer 1" xmlns="http://www.w3.org/2000/svg" xmlns:xlink="http://www.w3.org/1999/xlink" viewBox="0 0 719.5 719.5">
  <defs>
    <style>
      .cls-1 {
        fill: url(#radial-gradient);
        stroke: #021f57;
      }

      .cls-1, .cls-2, .cls-3 {
        stroke-miterlimit: 10;
        stroke-width: 7px;
      }

      .cls-4 {
        fill: url(#linear-gradient);
      }

      .cls-4, .cls-5, .cls-6, .cls-7, .cls-8, .cls-9, .cls-10, .cls-11, .cls-12, .cls-13, .cls-14, .cls-15, .cls-16, .cls-17, .cls-18, .cls-19, .cls-20 {
        stroke-width: 0px;
      }

      .cls-5 {
        fill: #000;
      }

      .cls-6 {
        fill: #428a15;
      }

      .cls-7 {
        fill: #3e8415;
      }

      .cls-8 {
        fill: #377500;
      }

      .cls-9 {
        fill: #3d8215;
      }

      .cls-10 {
        fill: url(#linear-gradient-6);
      }

      .cls-21 {
        opacity: .97;
      }

      .cls-22 {
        clip-path: url(#clippath-2);
      }

      .cls-11 {
        fill: #408715;
      }

      .cls-12 {
        fill: url(#linear-gradient-5);
      }

      .cls-13, .cls-2 {
        fill: none;
      }

      .cls-2 {
        stroke: #1c3b01;
      }

      .cls-14 {
        fill: url(#linear-gradient-2);
      }

      .cls-15 {
        fill: url(#linear-gradient-3);
      }

      .cls-16 {
        fill: #42a106;
      }

      .cls-23 {
        clip-path: url(#clippath-3);
      }

      .cls-17 {
        fill: #d6ff8a;
      }

      .cls-18 {
        fill: #2d5e01;
      }

      .cls-19 {
        fill: #1f3b01;
      }

      .cls-20 {
        fill: url(#linear-gradient-4);
      }

      .cls-3 {
        fill: url(#radial-gradient-2);
        stroke: #1e3b01;
      }
    </style>
    <radialGradient id="radial-gradient" cx="369.39" cy="322.71" fx="369.39" fy="322.71" r="310.97" gradientTransform="translate(0 2.23)" gradientUnits="userSpaceOnUse">
      <stop offset="0" stop-color="#a6c5ea"/>
      <stop offset=".24" stop-color="#a3c2e8"/>
      <stop offset=".4" stop-color="#9abae2"/>
      <stop offset=".53" stop-color="#8bacd8"/>
      <stop offset=".66" stop-color="#7599ca"/>
      <stop offset=".77" stop-color="#5a80b9"/>
      <stop offset=".88" stop-color="#3862a3"/>
      <stop offset=".98" stop-color="#103e89"/>
      <stop offset="1" stop-color="#083784"/>
    </radialGradient>
    <radialGradient id="radial-gradient-2" cx="369.39" cy="322.71" fx="369.39" fy="322.71" r="310.97" gradientTransform="translate(0 2.23)" gradientUnits="userSpaceOnUse">
      <stop offset="0" stop-color="#c4f757"/>
      <stop offset=".28" stop-color="#c1f554"/>
      <stop offset=".47" stop-color="#b8f04d"/>
      <stop offset=".64" stop-color="#a9e842"/>
      <stop offset=".78" stop-color="#93dc31"/>
      <stop offset=".92" stop-color="#78cd1c"/>
      <stop offset="1" stop-color="#64c20c"/>
    </radialGradient>
    <linearGradient id="linear-gradient" x1="386.44" y1="558.29" x2="577.14" y2="575.71" gradientUnits="userSpaceOnUse">
      <stop offset="0" stop-color="#255091"/>
      <stop offset="1" stop-color="#234e93"/>
    </linearGradient>
    <clipPath id="clippath-2">
      <circle class="cls-13" cx="359.75" cy="359.75" r="317.72"/>
    </clipPath>
    <linearGradient id="linear-gradient-2" x1="25.57" y1="220.56" x2="165.8" y2="116.64" gradientUnits="userSpaceOnUse">
      <stop offset="0" stop-color="#3b8000"/>
      <stop offset="1" stop-color="#62a818"/>
    </linearGradient>
    <linearGradient id="linear-gradient-3" x1="375.96" y1="-374.32" x2="121.86" y2="-89.84" gradientTransform="translate(281.49 -119.22) rotate(80.2)" gradientUnits="userSpaceOnUse">
      <stop offset="0" stop-color="#3b8000"/>
      <stop offset=".09" stop-color="#3f8402"/>
      <stop offset=".66" stop-color="#589e12"/>
      <stop offset="1" stop-color="#62a818"/>
    </linearGradient>
    <clipPath id="clippath-3">
      <circle class="cls-13" cx="359.75" cy="359.75" r="317.72"/>
    </clipPath>
    <linearGradient id="linear-gradient-4" x1="220.93" y1="197.11" x2="426.15" y2="470.29" gradientUnits="userSpaceOnUse">
      <stop offset="0" stop-color="#62bd08"/>
      <stop offset=".21" stop-color="#bdeb26"/>
      <stop offset="1" stop-color="#61b804"/>
    </linearGradient>
    <linearGradient id="linear-gradient-5" x1="294.04" y1="528.37" x2="595.53" y2="476.66" gradientUnits="userSpaceOnUse">
      <stop offset="0" stop-color="#5cbd08"/>
      <stop offset=".09" stop-color="#6dc70e"/>
      <stop offset=".18" stop-color="#7ed215"/>
      <stop offset=".36" stop-color="#a0e823"/>
      <stop offset="1" stop-color="#53ba04"/>
    </linearGradient>
    <linearGradient id="linear-gradient-6" x1="386.32" y1="559.8" x2="576.52" y2="574.9" gradientUnits="userSpaceOnUse">
      <stop offset="0" stop-color="#95d519"/>
      <stop offset="1" stop-color="#3d8314"/>
    </linearGradient>
  </defs>
  <circle class="cls-19" cx="359.75" cy="359.75" r="359.75"/>
  <circle class="cls-16" cx="359.75" cy="359.75" r="331.94"/>
  <circle class="cls-1" cx="359.75" cy="359.75" r="317.72"/>
  <circle class="cls-3" cx="359.75" cy="359.75" r="317.72"/>
  <path class="cls-4" d="M381.79,559.28s82.88-5,135.92,45.44c0,0-3.12-24.46-13.64-36.51,0,0,12.86,1.42,21.52,8.11,0,0,1.83-7.92-9.97-17.04,0,0,39.82-1.48,62.45,24.34,0,0-9.56-61.13-109.46-46.89,0,0,23.99,15.1,17.1,13.22-65.07-17.77-103.91,9.33-103.91,9.33Z"/>
  <g class="cls-22">
    <g>
      <path class="cls-8" d="M38.53,273.25c20.31,34.15,26.56,74.58,32.13,113.91,12.48,88.21,23.46,176.64,32.94,265.23,7.98-2.49,16.33-3.84,24.69-3.98-11.85-87.34,6.72-175.64,25.44-261.77,16.73-76.97,33.7-156.75,17.26-233.78-4.21,1.88-8.42,3.75-12.63,5.63,13.56,93.2-16.19,186.66-45.56,276.15,7.05-89.04-22.47-179.42-5.51-267.11"/>
      <path class="cls-8" d="M502.91,116.68c58.81,66.71,81.08,157.73,92.96,245.87,13.02,96.56,15.94,194.48,8.71,291.64,14.09-3.59,28.57-5.69,43.1-6.24-2.64-22.56.66-45.33,1.36-68.03.86-27.87-2.21-55.69-4.66-83.46-9.64-109.61-9.53-220.08.35-329.67-2.93,3.8-8.3,5.53-12.9,4.13,1.48,49.48-2.12,99.11-10.71,147.86-4.1-67.88-36.95-145.11-64.16-208.15"/>
      <path class="cls-14" d="M22.2,308.58c.63,13.93,12.84,26.38,26.76,27.27s27.62-9.89,30.03-23.62c4.93,11.81,22.84,13.42,32.56,5.08s12.17-22.63,10.37-35.3c19.41-3.95,32.98-26.06,27.71-45.16,8.89,7.27,22.2,8.6,32.36,3.24,10.16-5.36,16.57-17.1,15.58-28.55,19.67-2.42,37.64-15.72,45.7-33.83s5.9-40.37-5.48-56.59c20.88,5.07,42.86-17.93,36.85-38.56,17.4,8.36,39.82-1.52,49.27-18.36,9.44-16.84,7.75-38.17.06-55.88-10.4-23.95-31.43-43.04-56.27-51.08-27.98-9.06-58.68-4.26-86.61,4.98C103.2-12.03,37.75,49.01,6.63,124.91"/>
      <path class="cls-18" d="M76.91,520.59c-10.17-7.85-3.21-24.38,6.11-33.22s21.53-18.3,20.09-31.06c8.58,8.21,5.55,22.16,4.04,33.94-1.51,11.78,2.78,27.63,14.65,27.8,9.26.13,14.93-9.6,20.94-16.65s19.36-11.06,22.98-2.53c-6.29,6.23-12.2,13.92-12.25,22.78-.05,8.85,8.75,17.87,17.08,14.87,3.25-1.17,5.73-3.82,7.77-6.61,11.58-15.76,12.16-38.78,1.41-55.11,15.77,15.38,22.05,39.79,15.65,60.87-2.56,8.44-5.53,20.36,2.59,23.8,8.43,3.58,14.97-7.9,17.01-16.83-.51,4.87-.95,10.08,1.36,14.4s8.54,6.86,12.27,3.67c2.39-2.04,2.86-5.48,3.54-8.56,3.26-14.66,15.67-26.86,30.38-29.87-4.5,6.99-7.27,15.08-8.01,23.36-.16,1.76-.2,3.65.72,5.17,2.81,4.67,9.97,1.22,13.93-2.52,7.23-6.83,15.13-16.08,11.92-25.5,11.64,12.61,18.08,29.87,17.56,47.02-.38,12.36-2.45,28.27,8.63,33.77,10.31-1.2,19.87-7.62,24.89-16.7,2.18,32.59,1.88,68.8-19.8,93.22-18.49,20.83-47.93,27.58-75.56,31.12-16.18,2.07-32.77,3.41-48.67-.19-30.8-6.98-54.51-31.26-73.93-56.16-21.62-27.73-40.37-57.69-37.29-134.29Z"/>
      <path class="cls-15" d="M331.89-10.18c-13.62,2.99-23.8,17.15-22.32,31.01,1.49,13.86,14.45,25.53,28.39,25.57-10.8,6.87-9.33,24.79.53,32.95,9.87,8.16,24.37,8.14,36.55,4.21,7.19,18.45,31.3,28.06,49.21,19.62-5.65,10-4.7,23.34,2.32,32.44,7.01,9.1,19.68,13.41,30.78,10.49,5.73,18.97,21.9,34.42,41.11,39.27s40.78-1.06,54.83-15.03c-1.44,21.44,24.96,39.18,44.27,29.74-5.27,18.57,8.28,38.98,26.48,45.42,18.2,6.44,38.94,1.14,55.08-9.45,21.83-14.32,37.06-38.3,40.75-64.14,4.16-29.12-5.8-58.55-19.65-84.5-38.64-72.36-109.93-126.46-190.02-144.21"/>
      <path class="cls-18" d="M628.31,568.2c-12.26-7.33-16.89-22.8-18.21-37.03-1.32-14.23-.48-29.05-6.01-42.22,3.32,5.79,6.65,11.59,9.97,17.38.89,1.56,2.11,3.31,3.9,3.32,2.04,0,3.26-2.23,3.95-4.15,4.53-12.54,6.21-26.53,2.09-39.21s-14.8-23.66-27.97-25.71c11.59-6.96,28.24-3.62,36.24,7.28,1.27,1.73,2.41,3.67,4.25,4.77,4.39,2.6,10.24-1.34,11.78-6.2s.26-10.1-.43-15.16c-3.15-22.86,6.83-47.08,25.19-61.07-11.49,11.32-9.32,31.93,1.79,43.62s28.48,15.55,44.56,14.26c13.78,23.3,6.09,53.52-7.02,77.21-13.22,23.89-32.19,45.39-84.09,62.91Z"/>
    </g>
  </g>
  <circle class="cls-2" cx="359.75" cy="359.75" r="317.72"/>
  <g class="cls-23">
    <g class="cls-21">
      <path class="cls-5" d="M247.79,306.4c-21.69-14.82-38.4-30.68-52.03-66.84-11.41-30.26-18.43-61.94,8.51-80.74,1.06-.74,4.68-2.75,5.92-3.33,33.19-15.57,95.15,34.92,109.92,61.71,14.77,26.8-56.92,99.71-72.32,89.19Z"/>
      <path class="cls-5" d="M258.03,220.94s-10.5,42-13.95,60.67c-5.52,29.87-33.68,56.69-28.59,62.74,7.57,9.01,24.51,6.68,25.82,9.42s-.5,16.49-.98,20.43c0,0,.59,4.36,8.33,6.75,0,0-4.21,6.03-1.26,10.35s5.86,4.73,6.49,18.88c.63,14.15,1.7,21.7,10.14,25.62,8.45,3.92,24.54,1.56,38.43-3.37,13.89-4.94,31.33-15.87,34.38-9.44,3.06,6.43,8.76,24.27,8.76,24.27,0,0-50.79,21.12-51.24,34.61,0,0,7.18,8.27,11.69,13.71,0,0-16.24.78-18.65,12.36-2.41,11.58,9.44,23.37,9.44,23.37,0,0-82.69,74.09-99.7,98.21-17.01,24.12,46.08,46.03,87.16,59.73,41.08,13.7,171.18,26.77,254.64-30.25,83.46-57.02,97.24-97.61,79.76-111.27-17.48-13.66-34.8-28.59-34.8-28.59,0,0,20.37-35.66,11.44-45.99-8.93-10.34-45.14-35.45-64.51-26.26-19.37,9.19-20.86-39.24-24.61-72.26-3.75-33.02-8.3-173.31-49.17-195.29-40.87-21.98-72.15-28.8-116.11-18.58-43.97,10.22-71.82,27.69-82.9,60.19Z"/>
      <path class="cls-5" d="M567.3,149.64s-83.63-86.84-196.43-59.3c-99.81,24.36-169.51,64.39-177.95,79.55,0,0,15.9-15.34,42.89,11.65,10.82,10.82,43.92,50.49,76.92,101.1,33.01,50.61,56.29,73.85,84.93,102.49,28.06,28.06,70.51,33.93,49.24,63.42-30.89,42.82-85.83,74.32-85.83,74.32,0,0,182.85-52.73,207.31-74.73,24.46-22,50.03-41.2,31.68-75.08-14.77-27.27-66.66-130.64-66.66-187.7,0,0,7.66-15,33.88-35.72Z"/>
      <path class="cls-20" d="M480.47,435.07c26.54-26.54-18.28-41.91-56.09-71.64-38.25-30.07-65.8-58.42-105.25-127.04-35.01-60.92-63.44-83.46-89.64-93.49-20.4,11.2-33.25,21.02-36.57,26.99,0,0,15.9-15.34,42.89,11.65,10.82,10.82,43.92,50.49,76.92,101.1,33.01,50.61,56.29,73.85,84.93,102.49,28.06,28.06,70.51,33.93,49.24,63.42-30.89,42.82-85.83,74.32-85.83,74.32,0,0,2.93-.84,8.07-2.36,25.14-11.89,86.43-60.57,111.3-85.44Z"/>
      <path class="cls-12" d="M583.83,519.17s19.02-38.23,12.54-45.43c-10.81-12-43.54-39.49-74.13-22.57-40.2,22.23-167.49,86.11-167.49,86.11,0,0-38.65-11.98-40.41-12.82-1.76-.84-4.59-1.39-6,1.9-1.41,3.29,4.82,5.27,4.82,5.27,0,0,29.84,14.31,38.26,14.31,0,0,17.24-5.71,43.94-16.94,26.7-11.23,93.15-36.99,115.11-43.19,24.3-6.85,50.01-13.23,58.22,2.85,8.21,16.09,15.14,30.5,15.14,30.5Z"/>
      <path class="cls-6" d="M338.42,519.56s-21.21-39.38-29.1-43.24c-7.89-3.85-17.09.24-15.78,4.71,1.32,4.48,9.95,15.2,19.06,21.11,9.1,5.9,25.82,17.42,25.82,17.42Z"/>
      <path class="cls-11" d="M324.34,557.34s-26.89,8.66-44.92,22.04c-18.03,13.39-35.96,36.44-21.63,36.82,14.33.38,29.2-21.21,35.42-27.77,6.22-6.57,31.13-31.09,31.13-31.09Z"/>
      <path class="cls-9" d="M349.3,557.15s23.93,22.19,34.95,43.38c11.02,21.2,15.53,50.41-.53,42.76-16.06-7.66-18.17-33.94-20.68-42.88-2.51-8.94-13.74-43.26-13.74-43.26Z"/>
      <path class="cls-7" d="M310.42,629.99s11.57,14.92,19.05-.42c7.49-15.34,8.56-61.1,12.72-76.01,0,0-14.17,30.76-18.26,40.23-8.71,20.21-17.53,32.04-13.52,36.2Z"/>
    </g>
  </g>
  <path class="cls-17" d="M567.3,149.64s-51.82-54.74-131.79-63.61c-79.4-8.82-177.49,35.35-233.67,74.37,0,0,66.53-44.73,157.91-61.75,50.63-9.43,124.52-10.92,207.55,50.99Z"/>
  <path class="cls-10" d="M381.79,559.28s82.88-5,135.92,45.44c0,0-3.12-24.46-13.64-36.51,0,0,12.86,1.42,21.52,8.11,0,0,1.83-7.92-9.97-17.04,0,0,39.82-1.48,62.45,24.34,0,0-9.56-61.13-109.46-46.89,0,0,23.99,15.1,17.1,13.22-65.07-17.77-103.91,9.33-103.91,9.33Z"/>
</svg>