<?xml version="1.0" encoding="UTF-8"?>
<svg id="Layer_1" data-name="Layer 1" xmlns="http://www.w3.org/2000/svg" xmlns:xlink="http://www.w3.org/1999/xlink" viewBox="0 0 722.5 719.5">
  <defs>
    <style>
      .cls-1 {
        fill: #c56dc9;
      }

      .cls-1, .cls-2, .cls-3, .cls-4, .cls-5, .cls-6, .cls-7, .cls-8, .cls-9, .cls-10, .cls-11, .cls-12, .cls-13, .cls-14, .cls-15, .cls-16, .cls-17 {
        stroke-width: 0px;
      }

      .cls-2 {
        fill: #9f49a3;
      }

      .cls-3 {
        fill: url(#linear-gradient);
      }

      .cls-4 {
        fill: #000;
      }

      .cls-5 {
        fill: #fcecdd;
      }

      .cls-18 {
        fill: url(#radial-gradient-2);
        stroke: #fcecdd;
        stroke-width: 10px;
      }

      .cls-18, .cls-19, .cls-20 {
        stroke-miterlimit: 10;
      }

      .cls-21 {
        clip-path: url(#clippath-2);
      }

      .cls-19, .cls-9 {
        fill: none;
      }

      .cls-19, .cls-20 {
        stroke: #49155a;
        stroke-width: 7px;
      }

      .cls-6 {
        fill: #8b399d;
      }

      .cls-7 {
        fill: #f0a2df;
      }

      .cls-8 {
        fill: url(#linear-gradient-5);
      }

      .cls-22 {
        clip-path: url(#clippath-1);
      }

      .cls-10 {
        fill: #391947;
      }

      .cls-11 {
        fill: #1c024d;
      }

      .cls-12 {
        fill: url(#linear-gradient-2);
      }

      .cls-13 {
        fill: #371445;
      }

      .cls-14 {
        fill: url(#linear-gradient-3);
      }

      .cls-15 {
        fill: #49155a;
      }

      .cls-16 {
        fill: #361947;
      }

      .cls-17 {
        fill: url(#linear-gradient-4);
      }

      .cls-20 {
        fill: url(#radial-gradient);
      }
    </style>
    <radialGradient id="radial-gradient" cx="369.39" cy="322.71" fx="369.39" fy="322.71" r="310.97" gradientTransform="translate(0 2.23)" gradientUnits="userSpaceOnUse">
      <stop offset="0" stop-color="#e79edf"/>
      <stop offset=".26" stop-color="#e49bdd"/>
      <stop offset=".43" stop-color="#db93d9"/>
      <stop offset=".58" stop-color="#cc86d3"/>
      <stop offset=".71" stop-color="#b674c9"/>
      <stop offset=".83" stop-color="#9b5cbd"/>
      <stop offset=".95" stop-color="#793fae"/>
      <stop offset="1" stop-color="#6830a7"/>
    </radialGradient>
    <radialGradient id="radial-gradient-2" cx="276.26" cy="231.47" fx="276.26" fy="231.47" r="158.14" gradientTransform="translate(44.8 8.57) scale(.9)" gradientUnits="userSpaceOnUse">
      <stop offset="0" stop-color="#fff"/>
      <stop offset="1" stop-color="#edd0c2"/>
    </radialGradient>
    <clipPath id="clippath-1">
      <circle class="cls-9" cx="359.75" cy="359.75" r="317.72"/>
    </clipPath>
    <linearGradient id="linear-gradient" x1="61.39" y1="466.77" x2="216.52" y2="402.05" gradientUnits="userSpaceOnUse">
      <stop offset="0" stop-color="#1d0545"/>
      <stop offset="1" stop-color="#5d1c7d"/>
    </linearGradient>
    <linearGradient id="linear-gradient-2" x1="189.44" y1="597.17" x2="253.77" y2="473.58" gradientUnits="userSpaceOnUse">
      <stop offset="0" stop-color="#4e1781"/>
      <stop offset="1" stop-color="#bb6cc8"/>
    </linearGradient>
    <clipPath id="clippath-2">
      <circle class="cls-9" cx="359.75" cy="359.75" r="317.72"/>
    </clipPath>
    <linearGradient id="linear-gradient-3" x1="220.93" y1="197.11" x2="426.15" y2="470.29" gradientUnits="userSpaceOnUse">
      <stop offset="0" stop-color="#ae54b0"/>
      <stop offset="1" stop-color="#6c3092"/>
    </linearGradient>
    <linearGradient id="linear-gradient-4" x1="305.88" y1="526.34" x2="595.53" y2="476.66" gradientUnits="userSpaceOnUse">
      <stop offset="0" stop-color="#66216b"/>
      <stop offset=".36" stop-color="#9949a6"/>
      <stop offset="1" stop-color="#391947"/>
    </linearGradient>
    <linearGradient id="linear-gradient-5" x1="386.44" y1="558.29" x2="577.14" y2="575.71" gradientUnits="userSpaceOnUse">
      <stop offset="0" stop-color="#6b1978"/>
      <stop offset="1" stop-color="#462154"/>
    </linearGradient>
  </defs>
  <circle class="cls-15" cx="359.75" cy="359.75" r="359.75"/>
  <circle class="cls-6" cx="359.75" cy="359.75" r="331.94"/>
  <circle class="cls-20" cx="359.75" cy="359.75" r="317.72"/>
  <g>
    <circle class="cls-18" cx="293.18" cy="216.68" r="142.18"/>
    <g>
      <circle class="cls-5" cx="215.17" cy="136.66" r="10.88"/>
      <path class="cls-5" d="M189.59,211.94c8.48,0,15.72-5.22,18.63-12.59,12.62-1.41,22.44-12.12,22.44-25.12,0-13.96-11.32-25.28-25.28-25.28s-25.28,11.32-25.28,25.28c0,.17,0,.34.01.5-6.27,3.34-10.53,9.89-10.53,17.42,0,10.92,8.96,19.78,20,19.78Z"/>
      <path class="cls-5" d="M226.05,216.68c-16.63,0-30.12,14.09-30.12,31.47,0,9.09,3.69,17.27,9.59,23.02-2.58,1.9-4.76,4.33-6.39,7.15-2.57-2.37-5.91-3.81-9.56-3.81-8.12,0-14.71,7.09-14.71,15.83s6.59,15.83,14.71,15.83c3.65,0,6.99-1.44,9.56-3.81,4,6.91,11.33,11.55,19.72,11.55,12.66,0,22.93-10.55,22.93-23.56,0-4.9-1.45-9.44-3.94-13.21,10.77-4.79,18.33-15.96,18.33-28.96,0-17.38-13.48-31.47-30.12-31.47Z"/>
      <ellipse class="cls-5" cx="256.17" cy="91.03" rx="11.69" ry="11.65"/>
    </g>
  </g>
  <g class="cls-22">
    <g>
      <g>
        <path class="cls-3" d="M34.24,335.83h18.63l6.21,17.59h24.84v-35.18h-12.42v-5.86h12.42l20.37-60.12,23.1,60.12h12.42v5.86h-12.42v41.05h31.05l10.98-25.59,26.29,49.05h-6.21v41.05h12.42l-.15-19.16,18.78,7.43v17.59h12.42v-11.73l12.42,5.86.15,21.08,18.48,19.97v5.86h-18.63v41.05h24.84v64.5H108.77S15.51,459.22,34.24,335.83Z"/>
        <rect class="cls-1" x="97" y="326.5" width="18" height="40.5"/>
        <rect class="cls-2" x="58.75" y="391.75" width="18" height="42.75"/>
        <rect class="cls-1" x="142" y="389.5" width="18" height="42.75"/>
        <rect class="cls-1" x="160" y="470.5" width="18" height="38.25"/>
        <rect class="cls-1" x="196" y="470.5" width="18" height="40.5"/>
      </g>
      <path class="cls-12" d="M136.5,571.2c4.8-14.98,5.46-31.26,1.91-46.58,8.01,6.89,16.01,13.79,24.02,20.68-.97-7.82-1.93-15.64-2.9-23.45,8.87,5.4,14.12,16.21,12.89,26.52,4.52-13.87,13.52-26.25,25.32-34.82-6.28,11.56-9.11,24.97-8.03,38.09,3.15-10.3,14.43-17.41,25.09-15.81-2.18,8.64-4.36,17.29-6.54,25.93,12.06-10.38,17.02-28.27,12.03-43.38,10.95,12.32,14.05,31.06,7.66,46.25,4.32-7.22,8.64-14.44,12.96-21.66,1.21-2.02,2.55-4.16,4.7-5.14s5.29-.05,5.69,2.27c-3.79,6.96-5.47,15.06-4.75,22.95,5.73-4.8,11.46-9.61,17.19-14.41,2.06,9.75-.43,20.36-6.6,28.18,7.9-2.82,15.55-6.34,22.83-10.51.9,25.26-8.4,50.74-25.35,69.5-6.94,7.68-15.04,14.21-23.1,20.7-4.32,3.48-8.75,7.02-13.98,8.88-14.87,5.29-30.87-4.43-41.94-15.68-18.43-18.73-31.06-43.09-39.11-78.49Z"/>
      <path class="cls-11" d="M113.29,578.12l-4.59-24.19c7.73,3.92,15.04,8.69,21.75,14.18-5.56-11.31-11.12-22.62-16.68-33.92,17.37,3.8,31.59,19.15,34.06,36.76.75-8.1,1.93-17.06,8.11-22.35,4.59,8.36,9.17,16.71,13.76,25.07l11.58-15.36c4.77,8.41,6.75,18.37,5.57,27.96,4.52-4.16,9.04-8.33,13.56-12.49,3.33,10.94.69,23.5-6.75,32.19,2.63,4.06,10.07,3,11.46-1.63-.33,5.11-.66,10.23-.98,15.34,3.8-1.13,7.2-3.55,9.51-6.78,4.15,19.7-11.13,41.27-31.09,43.89-9.28-21.34-44.8-20.39-53.56-41.95-3.72-9.16-2.21-21.64-15.68-36.72Z"/>
      <path class="cls-11" d="M697.02,456.65l19.54-40.15c-9.22,2.04-17.68,6.89-24.45,13.52-5.85-6.01-10.7-12.94-15.44-19.86-2.93-4.27-5.61-8.72-8.04-13.29,0-.02,0-.03,0-.05-.21-12.4-.45-24.81,1.12-37.15-.04-3.24-.41-1.76-.31-5.36.31-5.67,2.42-14.28,5.08-21.67-5.25,6.96-10.25,14.71-11.92,23.38-.1.75-.21,1.5-.25,2.26-1.46,4.61-2.71,9.27-3.64,14.01-1.59-5.56-2.84-11.22-3.95-16.89-.18-1.45-.63-2.85-1.32-4.07-.64-5.25-1.27-10.5-1.84-15.75-.47-3.19-.86-6.56-1.32-9.97.9-.56,1.83-1.05,2.8-1.48,1.46-.57,3-.9,4.42-1.55,2.3-1.25,2.94-4.09,1.91-6.4-.21-.61-.46-1.21-.72-1.81,0-.02-.03-.12-.11-.37-.11-.54-.32-1.06-.6-1.53-.02-1.18-.13-2.38-.05-3.52-.03-7.62-.35-15.24-.34-22.87-2.67,7.82-4.54,15.87-6.21,23.95-.2.92-.36,1.86-.56,2.78-.26.71-.32,1.49-.12,2.24-.75.17-1.48.39-2.21.64-1.86-7.64-5.1-14.66-11.9-19.23-.51-.3-1.03-.59-1.55-.88-.27-3.67-.32-7.43-2.04-10.78-.8-2.09-2.19-3.83-3.4-5.67,0-.04,0-.09,0-.13,0-.03,0-.05.01-.09,1.26-5.37,3.53-8.5,6.65-15.31,9.02-4.45,2.08-16.2-.99-22.61-3.98-7.91-8.95-15.25-14.93-21.78,4.92,9.66,8.47,19.91,11.4,30.34.84,3.75,1.07,3.71,1.06,5.91-.18.03-.35.08-.52.16-2.16.68-3.46,2.62-4.59,4.46-1.47,2.48-2.88,5.01-4.21,7.58-2,4.39-4.49,9.39-3.01,14.28.69,2.06,2.37,3.54,3.73,5.17.89,1.21,1.69,2.49,2.31,3.85-.55-.35-1.1-.72-1.63-1.11-2.65-2.43-5.03-5.15-7.63-7.64-1.51-1.57-2.91-3.25-4.75-4.44-.64-.52-2.65-1.37-3.56-1.72-3.5-1.7-7.07-3.31-10.35-5.41-.33-.22-.65-.45-.98-.68-.02-.02-.04-.03-.06-.05-3-3.17-1.93-1.53-4.12-5.85-.24-.68-.42-1.38-.56-2.08-.03-.41-.04-.82-.02-1.24.04-.16.09-.32.13-.48.09-.14.19-.3.32-.48,1.72-2.2,3.24-4.65,3.75-7.42.5-2.96.54-6.05-.32-8.94-1.08-3.07-3.32-6.45-6.59-5.96-2.7-1.59-5.28-3.41-7.94-5.07-5.84-3.67-11.8-8.29-18.9-8.75-.26-.27-1.25-.9-1.58-1.22-2.42-1.85-4.8-3.77-7.28-5.54,2.45,3.09,4.79,6.28,7.26,9.35.64.57,1.6.55,2.36.91,2.67,1.18,4.99,3.08,7.18,4.98,3.57,3.25,6.93,6.73,10.54,9.93,1.56,1.39,3.38,3.22,5.33,4.35.01.45.01.98-.05,1.35-.02.16-.03.27-.03.33-.14.65-.33,1.36-.46,1.81-1.64,2.96-.58.76-2.9,3.83-5.75,7.91-1.17,19.2,5.47,25.12,4.78,4.16,10.87,6.2,16.33,9.21-.38-.08-.78-.12-1.17-.12-.26-.04-.51-.09-.76-.16-8.03-4.63-18.33-2.99-25.31,2.8-5.61-4.83-11.78-8.97-18.02-12.94,4.18,5.82,8.63,11.46,11.78,15.59,1.65,1.91,2.73,4.38,4.73,5.94,1.89,1.12,4.25.26,5.3-1.52,3.53-2.05,3.11-1.8,5.98-2.78,2.14-.73,7.16-.86,8.03-.57,1.67.29,3.26.85,4.84,1.43.81.17,1.63.25,2.45.28.79.63,1.71,1.12,2.63,1.44,2.14.69,4.46.61,6.64.15.55-.17,1.1-.37,1.65-.58,1.4,1.39,2.87,2.71,4.53,3.81,4.78,3.44,12.09,6.22,12.67,7.54.3.3.59.62.86.94,2.96,4.26,3.65,7.49,4.73,13.27-2.64-1.53-5.54-2.52-8.7-2.52-1.11-.04-2.21.06-3.31.16-1.32-1.29-3.16-2.11-4.71-3.06-5.43-2.92-11.32-4.91-17.03-7.22-.7-.25-1.41-.5-2.11-.76.06.04.11.09.16.13,5.41,4.7,11.29,8.84,16.46,13.8.53.51,1.09,1.01,1.59,1.56.02.03.04.06.06.09.46,1.46,1.51,2.71,3.06,3.08,3.94.55,2.77.17,5.43.78,3.08.74,4.37,2.27,7.85,5.8.62,1.74,1.62,3.31,3.24,4.25.13.08.26.14.39.21.3,2.74.64,5.77,1.08,9.26.19,1.64.43,3.28.6,4.92-.08-.02-.16-.05-.24-.07-.26-.07-.53-.14-.79-.21-.06-.08-.11-.16-.17-.24-.28-.51-1.28-1.81-1.76-2.41-1.34-1.94-2.75-3.86-4.56-5.38-3.24-2.64-12.07-7.33-18.75-7.8-.57-.65-1.16-1.28-1.72-1.89-8.9-8.48-18.83-15.79-28.32-23.58,6.79,11.99,17.32,24.08,22.08,30.97.03,2.77,2.21,5.33,5.16,5.31.74,0,1.44-.16,2.08-.46.54.11,1.35.36,3.27.97,4.45,1.8,5.04,1.61,10.46,4.8,2.19,1.86,3.99,4.12,6.11,6.05,1.48,1.37,3.47,1.84,5.44,1.93.13.01.26.02.39.02.12.03.24.05.36.08.09.03.18.06.28.09.32.17.65.33.97.5,1.51.75,1.8.87,2.08,1.1.03.13.06.27.08.4.03.16.06.32.08.49.05.35.13.68.23,1.01,1.63,7.5,3.77,14.88,7.05,21.83-1.34-.43-2.69-.84-4.06-1.19-3.07-.67-6.2-.75-9.33-.51-2.12-.15-4.23-.2-6.35-.12-1.66-.79-3.21-1.8-4.67-2.91-1.62-1.27-3.14-2.66-4.59-4.12-2.58-2.43-4.55-5.49-7.36-7.66-1.23-.74-1.27.98-1.59,1.74-.48,1.18-.8,1.57.31.29.28-.35.53-.71.77-1.09.59,1.15,1.64,3.11,2.26,4.59,2.82,6.06,6.46,12.1,12.06,15.96.33.24.91.47,1.22.56,2.7.35,5.3,1.21,7.99,1.62.5.07,1.5.19,2.06.25.46.07.91.15,1.37.25,4.57,1.2,3.71,1.27,9.04,3.62,2.49,1.25,5.1,2.28,7.51,3.69.84,1.57,2.45,2.53,4.18,2.79,5.36,6.98,11.62,13.29,18.34,18.95,3.4,2.95,7,5.64,10.84,7.94-7.53,7.85-12.76,17.95-14.27,28.79-.88-9.59-2.26-20.19-9.5-26.46-5.37,9.89-10.75,19.78-16.12,29.67-4.52-6.06-9.04-12.12-13.57-18.17-5.59,9.95-7.91,21.74-6.52,33.09-5.3-4.93-10.6-9.85-15.89-14.78-3.9,12.95-.81,27.82,7.91,38.1-3.08,4.8-11.8,3.55-13.42-1.93l1.15,18.16c-4.45-1.33-8.44-4.2-11.14-8.02-4.86,23.32,13.05,48.85,36.44,51.95,10.88-25.25,52.49-24.13,62.76-49.65,4.36-10.84,2.59-25.61,18.37-43.46,1.79-9.54,3.59-19.09,5.38-28.63-9.06,4.64-17.62,10.28-25.48,16.78Z"/>
    </g>
  </g>
  <g class="cls-21">
    <g>
      <path class="cls-4" d="M247.79,306.4c-21.69-14.82-38.4-30.68-52.03-66.84-11.41-30.26-18.43-61.94,8.51-80.74,1.06-.74,4.68-2.75,5.92-3.33,33.19-15.57,95.15,34.92,109.92,61.71,14.77,26.8-56.92,99.71-72.32,89.19Z"/>
      <path class="cls-4" d="M258.03,220.94s-10.5,42-13.95,60.67c-5.52,29.87-33.68,56.69-28.59,62.74,7.57,9.01,24.51,6.68,25.82,9.42s-.5,16.49-.98,20.43c0,0,.59,4.36,8.33,6.75,0,0-4.21,6.03-1.26,10.35s5.86,4.73,6.49,18.88c.63,14.15,1.7,21.7,10.14,25.62,8.45,3.92,24.54,1.56,38.43-3.37,13.89-4.94,31.33-15.87,34.38-9.44,3.06,6.43,8.76,24.27,8.76,24.27,0,0-50.79,21.12-51.24,34.61,0,0,7.18,8.27,11.69,13.71,0,0-16.24.78-18.65,12.36-2.41,11.58,9.44,23.37,9.44,23.37,0,0-82.69,74.09-99.7,98.21-17.01,24.12,46.08,46.03,87.16,59.73,41.08,13.7,171.18,26.77,254.64-30.25,83.46-57.02,97.24-97.61,79.76-111.27-17.48-13.66-34.8-28.59-34.8-28.59,0,0,20.37-35.66,11.44-45.99-8.93-10.34-45.14-35.45-64.51-26.26-19.37,9.19-20.86-39.24-24.61-72.26-3.75-33.02-8.3-173.31-49.17-195.29-40.87-21.98-72.15-28.8-116.11-18.58-43.97,10.22-71.82,27.69-82.9,60.19Z"/>
      <path class="cls-4" d="M567.3,149.64s-83.63-86.84-196.43-59.3c-99.81,24.36-169.51,64.39-177.95,79.55,0,0,15.9-15.34,42.89,11.65,10.82,10.82,43.92,50.49,76.92,101.1,33.01,50.61,56.29,73.85,84.93,102.49,28.06,28.06,70.51,33.93,49.24,63.42-30.89,42.82-85.83,74.32-85.83,74.32,0,0,182.85-52.73,207.31-74.73,24.46-22,50.03-41.2,31.68-75.08-14.77-27.27-66.66-130.64-66.66-187.7,0,0,7.66-15,33.88-35.72Z"/>
      <path class="cls-14" d="M480.47,435.07c26.54-26.54-18.28-41.91-56.09-71.64-38.25-30.07-65.8-58.42-105.25-127.04-35.01-60.92-63.44-83.46-89.64-93.49-20.4,11.2-33.25,21.02-36.57,26.99,0,0,15.9-15.34,42.89,11.65,10.82,10.82,43.92,50.49,76.92,101.1,33.01,50.61,56.29,73.85,84.93,102.49,28.06,28.06,70.51,33.93,49.24,63.42-30.89,42.82-85.83,74.32-85.83,74.32,0,0,2.93-.84,8.07-2.36,25.14-11.89,86.43-60.57,111.3-85.44Z"/>
      <path class="cls-17" d="M583.83,519.17s19.02-38.23,12.54-45.43c-10.81-12-43.54-39.49-74.13-22.57-40.2,22.23-167.49,86.11-167.49,86.11,0,0-38.65-11.98-40.41-12.82-1.76-.84-4.59-1.39-6,1.9-1.41,3.29,4.82,5.27,4.82,5.27,0,0,29.84,14.31,38.26,14.31,0,0,17.24-5.71,43.94-16.94,26.7-11.23,93.15-36.99,115.11-43.19,24.3-6.85,50.01-13.23,58.22,2.85,8.21,16.09,15.14,30.5,15.14,30.5Z"/>
      <path class="cls-13" d="M338.42,519.56s-21.21-39.38-29.1-43.24c-7.89-3.85-17.09.24-15.78,4.71,1.32,4.48,9.95,15.2,19.06,21.11,9.1,5.9,25.82,17.42,25.82,17.42Z"/>
      <path class="cls-10" d="M324.34,557.34s-26.89,8.66-44.92,22.04c-18.03,13.39-35.96,36.44-21.63,36.82,14.33.38,29.2-21.21,35.42-27.77,6.22-6.57,31.13-31.09,31.13-31.09Z"/>
      <path class="cls-10" d="M349.3,557.15s23.93,22.19,34.95,43.38c11.02,21.2,15.53,50.41-.53,42.76-16.06-7.66-18.17-33.94-20.68-42.88-2.51-8.94-13.74-43.26-13.74-43.26Z"/>
      <path class="cls-16" d="M310.42,629.99s11.57,14.92,19.05-.42c7.49-15.34,8.56-61.1,12.72-76.01,0,0-14.17,30.76-18.26,40.23-8.71,20.21-17.53,32.04-13.52,36.2Z"/>
    </g>
  </g>
  <path class="cls-8" d="M381.79,559.28s82.88-5,135.92,45.44c0,0-3.12-24.46-13.64-36.51,0,0,12.86,1.42,21.52,8.11,0,0,1.83-7.92-9.97-17.04,0,0,39.82-1.48,62.45,24.34,0,0-9.56-61.13-109.46-46.89,0,0,23.99,15.1,17.1,13.22-65.07-17.77-103.91,9.33-103.91,9.33Z"/>
  <path class="cls-7" d="M567.3,149.64s-51.82-54.74-131.79-63.61c-79.4-8.82-177.49,35.35-233.67,74.37,0,0,66.53-44.73,157.91-61.75,50.63-9.43,124.52-10.92,207.55,50.99Z"/>
  <circle class="cls-19" cx="359.75" cy="359.75" r="317.72"/>
</svg>