<?xml version="1.0" encoding="UTF-8"?>
<svg id="Layer_1" data-name="Layer 1" xmlns="http://www.w3.org/2000/svg" xmlns:xlink="http://www.w3.org/1999/xlink" viewBox="0 0 719.5 719.5">
  <defs>
    <style>
      .cls-1 {
        fill: #a1061b;
      }

      .cls-1, .cls-2, .cls-3, .cls-4, .cls-5, .cls-6, .cls-7, .cls-8, .cls-9, .cls-10, .cls-11, .cls-12, .cls-13 {
        stroke-width: 0px;
      }

      .cls-2 {
        fill: #82151a;
      }

      .cls-14 {
        fill: url(#radial-gradient);
        stroke: #021f57;
      }

      .cls-14, .cls-15, .cls-16 {
        stroke-miterlimit: 10;
        stroke-width: 7px;
      }

      .cls-15 {
        stroke: #3b0301;
      }

      .cls-15, .cls-7 {
        fill: none;
      }

      .cls-3 {
        fill: url(#linear-gradient);
      }

      .cls-4 {
        fill: #000;
      }

      .cls-5 {
        fill: #821527;
      }

      .cls-6 {
        fill: #ff3845;
      }

      .cls-17 {
        clip-path: url(#clippath-1);
      }

      .cls-8 {
        fill: #82151e;
      }

      .cls-9 {
        fill: url(#linear-gradient-2);
      }

      .cls-10 {
        fill: url(#linear-gradient-3);
      }

      .cls-16 {
        fill: url(#radial-gradient-2);
        stroke: #3b0109;
      }

      .cls-11 {
        fill: #82151c;
      }

      .cls-12 {
        fill: #3b0107;
      }

      .cls-13 {
        fill: url(#linear-gradient-4);
      }
    </style>
    <radialGradient id="radial-gradient" cx="369.39" cy="322.71" fx="369.39" fy="322.71" r="310.97" gradientTransform="translate(0 2.23)" gradientUnits="userSpaceOnUse">
      <stop offset="0" stop-color="#a6c5ea"/>
      <stop offset=".24" stop-color="#a3c2e8"/>
      <stop offset=".4" stop-color="#9abae2"/>
      <stop offset=".53" stop-color="#8bacd8"/>
      <stop offset=".66" stop-color="#7599ca"/>
      <stop offset=".77" stop-color="#5a80b9"/>
      <stop offset=".88" stop-color="#3862a3"/>
      <stop offset=".98" stop-color="#103e89"/>
      <stop offset="1" stop-color="#083784"/>
    </radialGradient>
    <radialGradient id="radial-gradient-2" cx="369.39" cy="322.71" fx="369.39" fy="322.71" r="310.97" gradientTransform="translate(0 2.23)" gradientUnits="userSpaceOnUse">
      <stop offset="0" stop-color="#f7576f"/>
      <stop offset=".28" stop-color="#f4546c"/>
      <stop offset=".47" stop-color="#ee4c63"/>
      <stop offset=".63" stop-color="#e23f54"/>
      <stop offset=".77" stop-color="#d22d3e"/>
      <stop offset=".91" stop-color="#bd1523"/>
      <stop offset="1" stop-color="#ab000b"/>
    </radialGradient>
    <linearGradient id="linear-gradient" x1="386.44" y1="558.29" x2="577.14" y2="575.71" gradientUnits="userSpaceOnUse">
      <stop offset="0" stop-color="#255091"/>
      <stop offset="1" stop-color="#234e93"/>
    </linearGradient>
    <clipPath id="clippath-1">
      <circle class="cls-7" cx="359.75" cy="359.75" r="317.72"/>
    </clipPath>
    <linearGradient id="linear-gradient-2" x1="220.93" y1="197.11" x2="426.15" y2="470.29" gradientUnits="userSpaceOnUse">
      <stop offset="0" stop-color="#bd0823"/>
      <stop offset=".21" stop-color="#eb264a"/>
      <stop offset="1" stop-color="#b80422"/>
    </linearGradient>
    <linearGradient id="linear-gradient-3" x1="294.04" y1="528.37" x2="595.53" y2="476.66" gradientUnits="userSpaceOnUse">
      <stop offset="0" stop-color="#bd082f"/>
      <stop offset=".36" stop-color="#e82354"/>
      <stop offset="1" stop-color="#ba042e"/>
    </linearGradient>
    <linearGradient id="linear-gradient-4" x1="386.44" y1="558.29" x2="577.14" y2="575.71" gradientUnits="userSpaceOnUse">
      <stop offset="0" stop-color="#e52151"/>
      <stop offset="1" stop-color="#b80422"/>
    </linearGradient>
  </defs>
  <circle class="cls-12" cx="359.75" cy="359.75" r="359.75"/>
  <circle class="cls-1" cx="359.75" cy="359.75" r="331.94"/>
  <circle class="cls-14" cx="359.75" cy="359.75" r="317.72"/>
  <circle class="cls-16" cx="359.75" cy="359.75" r="317.72"/>
  <path class="cls-3" d="M381.79,559.28s82.88-5,135.92,45.44c0,0-3.12-24.46-13.64-36.51,0,0,12.86,1.42,21.52,8.11,0,0,1.83-7.92-9.97-17.04,0,0,39.82-1.48,62.45,24.34,0,0-9.56-61.13-109.46-46.89,0,0,23.99,15.1,17.1,13.22-65.07-17.77-103.91,9.33-103.91,9.33Z"/>
  <circle class="cls-15" cx="359.75" cy="359.75" r="317.72"/>
  <g class="cls-17">
    <g>
      <path class="cls-4" d="M247.79,306.4c-21.69-14.82-38.4-30.68-52.03-66.84-11.41-30.26-18.43-61.94,8.51-80.74,1.06-.74,4.68-2.75,5.92-3.33,33.19-15.57,95.15,34.92,109.92,61.71,14.77,26.8-56.92,99.71-72.32,89.19Z"/>
      <path class="cls-4" d="M258.03,220.94s-10.5,42-13.95,60.67c-5.52,29.87-33.68,56.69-28.59,62.74,7.57,9.01,24.51,6.68,25.82,9.42,1.31,2.74-.5,16.49-.98,20.43,0,0,.59,4.36,8.33,6.75,0,0-4.21,6.03-1.26,10.35s5.86,4.73,6.49,18.88c.63,14.15,1.7,21.7,10.14,25.62,8.45,3.92,24.54,1.56,38.43-3.37,13.89-4.94,31.33-15.87,34.38-9.44,3.06,6.43,8.76,24.27,8.76,24.27,0,0-50.79,21.12-51.24,34.61,0,0,7.18,8.27,11.69,13.71,0,0-16.24.78-18.65,12.36-2.41,11.58,9.44,23.37,9.44,23.37,0,0-82.69,74.09-99.7,98.21-17.01,24.12,46.08,46.03,87.16,59.73,41.08,13.7,171.18,26.77,254.64-30.25,83.46-57.02,97.24-97.61,79.76-111.27-17.48-13.66-34.8-28.59-34.8-28.59,0,0,20.37-35.66,11.44-45.99-8.93-10.34-45.14-35.45-64.51-26.26-19.37,9.19-20.86-39.24-24.61-72.26-3.75-33.02-8.3-173.31-49.17-195.29-40.87-21.98-72.15-28.8-116.11-18.58-43.97,10.22-71.82,27.69-82.9,60.19Z"/>
      <path class="cls-4" d="M567.3,149.64s-83.63-86.84-196.43-59.3c-99.81,24.36-169.51,64.39-177.95,79.55,0,0,15.9-15.34,42.89,11.65,10.82,10.82,43.92,50.49,76.92,101.1,33.01,50.61,56.29,73.85,84.93,102.49,28.06,28.06,70.51,33.93,49.24,63.42-30.89,42.82-85.83,74.32-85.83,74.32,0,0,182.85-52.73,207.31-74.73,24.46-22,50.03-41.2,31.68-75.08-14.77-27.27-66.66-130.64-66.66-187.7,0,0,7.66-15,33.88-35.72Z"/>
      <path class="cls-9" d="M480.47,435.07c26.54-26.54-18.28-41.91-56.09-71.64-38.25-30.07-65.8-58.42-105.25-127.04-35.01-60.92-63.44-83.46-89.64-93.49-20.4,11.2-33.25,21.02-36.57,26.99,0,0,15.9-15.34,42.89,11.65,10.82,10.82,43.92,50.49,76.92,101.1,33.01,50.61,56.29,73.85,84.93,102.49,28.06,28.06,70.51,33.93,49.24,63.42-30.89,42.82-85.83,74.32-85.83,74.32,0,0,2.93-.84,8.07-2.36,25.14-11.89,86.43-60.57,111.3-85.44Z"/>
      <path class="cls-10" d="M583.83,519.17s19.02-38.23,12.54-45.43c-10.81-12-43.54-39.49-74.13-22.57-40.2,22.23-167.49,86.11-167.49,86.11,0,0-38.65-11.98-40.41-12.82-1.76-.84-4.59-1.39-6,1.9-1.41,3.29,4.82,5.27,4.82,5.27,0,0,29.84,14.31,38.26,14.31,0,0,17.24-5.71,43.94-16.94,26.7-11.23,93.15-36.99,115.11-43.19,24.3-6.85,50.01-13.23,58.22,2.85,8.21,16.09,15.14,30.5,15.14,30.5Z"/>
      <path class="cls-5" d="M338.42,519.56s-21.21-39.38-29.1-43.24c-7.89-3.85-17.09.24-15.78,4.71,1.32,4.48,9.95,15.2,19.06,21.11,9.1,5.9,25.82,17.42,25.82,17.42Z"/>
      <path class="cls-2" d="M324.34,557.34s-26.89,8.66-44.92,22.04c-18.03,13.39-35.96,36.44-21.63,36.82,14.33.38,29.2-21.21,35.42-27.77,6.22-6.57,31.13-31.09,31.13-31.09Z"/>
      <path class="cls-8" d="M349.3,557.15s23.93,22.19,34.95,43.38c11.02,21.2,15.53,50.41-.53,42.76-16.06-7.66-18.17-33.94-20.68-42.88-2.51-8.94-13.74-43.26-13.74-43.26Z"/>
      <path class="cls-11" d="M310.42,629.99s11.57,14.92,19.05-.42c7.49-15.34,8.56-61.1,12.72-76.01,0,0-14.17,30.76-18.26,40.23-8.71,20.21-17.53,32.04-13.52,36.2Z"/>
    </g>
  </g>
  <path class="cls-6" d="M567.3,149.64s-51.82-54.74-131.79-63.61c-79.4-8.82-177.49,35.35-233.67,74.37,0,0,66.53-44.73,157.91-61.75,50.63-9.43,124.52-10.92,207.55,50.99Z"/>
  <path class="cls-13" d="M381.79,559.28s82.88-5,135.92,45.44c0,0-3.12-24.46-13.64-36.51,0,0,12.86,1.42,21.52,8.11,0,0,1.83-7.92-9.97-17.04,0,0,39.82-1.48,62.45,24.34,0,0-9.56-61.13-109.46-46.89,0,0,23.99,15.1,17.1,13.22-65.07-17.77-103.91,9.33-103.91,9.33Z"/>
</svg>